<?xml version="1.0" encoding="UTF-8" standalone="no"?>
<!-- Created with Inkscape (http://www.inkscape.org/) -->

<svg
   xmlns:dc="http://purl.org/dc/elements/1.1/"
   xmlns:cc="http://creativecommons.org/ns#"
   xmlns:rdf="http://www.w3.org/1999/02/22-rdf-syntax-ns#"
   xmlns:svg="http://www.w3.org/2000/svg"
   xmlns="http://www.w3.org/2000/svg"
   xmlns:xlink="http://www.w3.org/1999/xlink"
   xmlns:sodipodi="http://sodipodi.sourceforge.net/DTD/sodipodi-0.dtd"
   xmlns:inkscape="http://www.inkscape.org/namespaces/inkscape"
   width="210mm"
   height="297mm"
   viewBox="0 0 210 297"
   version="1.1"
   id="svg8"
   inkscape:version="0.92.1 r"
   sodipodi:docname="acm logo v3.svg">
  <defs
     id="defs2">
    <marker
       inkscape:stockid="Arrow2Mend"
       orient="auto"
       refY="0.0"
       refX="0.0"
       id="Arrow2Mend"
       style="overflow:visible;"
       inkscape:isstock="true">
      <path
         id="path4573"
         style="fill-rule:evenodd;stroke-width:0.62500000;stroke-linejoin:round;"
         d="M 8.7185878,4.0337352 L -2.2072895,0.016013256 L 8.7185884,-4.0017078 C 6.9730900,-1.6296469 6.9831476,1.6157441 8.7185878,4.0337352 z "
         transform="scale(0.6) rotate(180) translate(0,0)" />
    </marker>
    <marker
       inkscape:stockid="Arrow2Mstart"
       orient="auto"
       refY="0.0"
       refX="0.0"
       id="Arrow2Mstart"
       style="overflow:visible"
       inkscape:isstock="true">
      <path
         id="path4570"
         style="fill-rule:evenodd;stroke-width:0.62500000;stroke-linejoin:round"
         d="M 8.7185878,4.0337352 L -2.2072895,0.016013256 L 8.7185884,-4.0017078 C 6.9730900,-1.6296469 6.9831476,1.6157441 8.7185878,4.0337352 z "
         transform="scale(0.6) translate(0,0)" />
    </marker>
    <marker
       inkscape:stockid="Arrow2Lend"
       orient="auto"
       refY="0.0"
       refX="0.0"
       id="Arrow2Lend"
       style="overflow:visible;"
       inkscape:isstock="true">
      <path
         id="path4567"
         style="fill-rule:evenodd;stroke-width:0.62500000;stroke-linejoin:round;"
         d="M 8.7185878,4.0337352 L -2.2072895,0.016013256 L 8.7185884,-4.0017078 C 6.9730900,-1.6296469 6.9831476,1.6157441 8.7185878,4.0337352 z "
         transform="scale(1.1) rotate(180) translate(1,0)" />
    </marker>
    <marker
       inkscape:stockid="Arrow2Lstart"
       orient="auto"
       refY="0.0"
       refX="0.0"
       id="Arrow2Lstart"
       style="overflow:visible"
       inkscape:isstock="true">
      <path
         id="path4564"
         style="fill-rule:evenodd;stroke-width:0.62500000;stroke-linejoin:round"
         d="M 8.7185878,4.0337352 L -2.2072895,0.016013256 L 8.7185884,-4.0017078 C 6.9730900,-1.6296469 6.9831476,1.6157441 8.7185878,4.0337352 z "
         transform="scale(1.1) translate(1,0)" />
    </marker>
    <marker
       inkscape:stockid="Arrow1Send"
       orient="auto"
       refY="0.0"
       refX="0.0"
       id="Arrow1Send"
       style="overflow:visible;"
       inkscape:isstock="true">
      <path
         id="path4561"
         d="M 0.0,0.0 L 5.0,-5.0 L -12.5,0.0 L 5.0,5.0 L 0.0,0.0 z "
         style="fill-rule:evenodd;stroke:#000000;stroke-width:1.0pt;"
         transform="scale(0.2) rotate(180) translate(6,0)" />
    </marker>
    <marker
       inkscape:stockid="Arrow1Sstart"
       orient="auto"
       refY="0.0"
       refX="0.0"
       id="Arrow1Sstart"
       style="overflow:visible"
       inkscape:isstock="true">
      <path
         id="path4558"
         d="M 0.0,0.0 L 5.0,-5.0 L -12.5,0.0 L 5.0,5.0 L 0.0,0.0 z "
         style="fill-rule:evenodd;stroke:#000000;stroke-width:1.0pt"
         transform="scale(0.2) translate(6,0)" />
    </marker>
    <marker
       inkscape:stockid="Arrow1Mend"
       orient="auto"
       refY="0.0"
       refX="0.0"
       id="Arrow1Mend"
       style="overflow:visible;"
       inkscape:isstock="true">
      <path
         id="path4555"
         d="M 0.0,0.0 L 5.0,-5.0 L -12.5,0.0 L 5.0,5.0 L 0.0,0.0 z "
         style="fill-rule:evenodd;stroke:#000000;stroke-width:1.0pt;"
         transform="scale(0.4) rotate(180) translate(10,0)" />
    </marker>
    <marker
       inkscape:stockid="Arrow1Mstart"
       orient="auto"
       refY="0.0"
       refX="0.0"
       id="Arrow1Mstart"
       style="overflow:visible"
       inkscape:isstock="true">
      <path
         id="path4552"
         d="M 0.0,0.0 L 5.0,-5.0 L -12.5,0.0 L 5.0,5.0 L 0.0,0.0 z "
         style="fill-rule:evenodd;stroke:#000000;stroke-width:1.0pt"
         transform="scale(0.4) translate(10,0)" />
    </marker>
    <marker
       inkscape:stockid="Arrow1Lend"
       orient="auto"
       refY="0.0"
       refX="0.0"
       id="Arrow1Lend"
       style="overflow:visible;"
       inkscape:isstock="true">
      <path
         id="path4549"
         d="M 0.0,0.0 L 5.0,-5.0 L -12.5,0.0 L 5.0,5.0 L 0.0,0.0 z "
         style="fill-rule:evenodd;stroke:#000000;stroke-width:1.0pt;"
         transform="scale(0.8) rotate(180) translate(12.5,0)" />
    </marker>
    <marker
       inkscape:stockid="Arrow1Lstart"
       orient="auto"
       refY="0.0"
       refX="0.0"
       id="Arrow1Lstart"
       style="overflow:visible"
       inkscape:isstock="true">
      <path
         id="path4546"
         d="M 0.0,0.0 L 5.0,-5.0 L -12.5,0.0 L 5.0,5.0 L 0.0,0.0 z "
         style="fill-rule:evenodd;stroke:#000000;stroke-width:1.0pt"
         transform="scale(0.8) translate(12.5,0)" />
    </marker>
    <linearGradient
       inkscape:collect="always"
       id="linearGradient4620">
      <stop
         style="stop-color:#7fc2ec;stop-opacity:1"
         offset="0"
         id="stop4616" />
      <stop
         style="stop-color:#3892c1;stop-opacity:1"
         offset="1"
         id="stop4618" />
    </linearGradient>
    <linearGradient
       inkscape:collect="always"
       id="linearGradient4601">
      <stop
         style="stop-color:#7fc2ec;stop-opacity:1"
         offset="0"
         id="stop4597" />
      <stop
         style="stop-color:#3892c1;stop-opacity:1"
         offset="1"
         id="stop4599" />
    </linearGradient>
    <radialGradient
       inkscape:collect="always"
       xlink:href="#linearGradient4601"
       id="radialGradient4614"
       cx="94.671555"
       cy="256.93698"
       fx="94.671555"
       fy="256.93698"
       r="24.582222"
       gradientTransform="matrix(2.5108776,0.05506226,-0.04287999,1.9553577,-165.64975,-280.16749)"
       gradientUnits="userSpaceOnUse" />
    <linearGradient
       inkscape:collect="always"
       xlink:href="#linearGradient4620"
       id="linearGradient4656"
       gradientUnits="userSpaceOnUse"
       x1="-33.997524"
       y1="264.57162"
       x2="33.997509"
       y2="326.81317"
       gradientTransform="matrix(1.0543983,0,0,1.1518638,211.28354,-129.31386)" />
    <linearGradient
       inkscape:collect="always"
       xlink:href="#linearGradient4620"
       id="linearGradient4666"
       gradientUnits="userSpaceOnUse"
       gradientTransform="matrix(1.0543983,0,0,1.1518638,192.05164,-236.56866)"
       x1="-33.997524"
       y1="264.57162"
       x2="33.997509"
       y2="326.81317" />
    <linearGradient
       inkscape:collect="always"
       xlink:href="#linearGradient4620"
       id="linearGradient6866"
       gradientUnits="userSpaceOnUse"
       gradientTransform="matrix(0.66556096,0,0,0.72708347,164.0488,-202.26513)"
       x1="-33.997524"
       y1="264.57162"
       x2="33.997509"
       y2="326.81317" />
    <linearGradient
       inkscape:collect="always"
       xlink:href="#linearGradient4620"
       id="linearGradient6917"
       gradientUnits="userSpaceOnUse"
       gradientTransform="matrix(1.7787313,1.7787313,-1.9431521,1.9431521,710.63836,169.99172)"
       x1="-33.997524"
       y1="264.57162"
       x2="33.997509"
       y2="326.81317" />
    <radialGradient
       inkscape:collect="always"
       xlink:href="#linearGradient4620"
       id="radialGradient6919"
       gradientUnits="userSpaceOnUse"
       gradientTransform="matrix(5.9902673,0.13136349,-0.10229994,4.6649488,-407.62341,-423.31272)"
       cx="94.671555"
       cy="256.93698"
       fx="94.671555"
       fy="256.93698"
       r="24.582222" />
    <linearGradient
       inkscape:collect="always"
       xlink:href="#linearGradient4620"
       id="linearGradient6927"
       gradientUnits="userSpaceOnUse"
       gradientTransform="matrix(1.7787313,1.7787313,-1.9431521,1.9431521,978.98481,169.99172)"
       x1="-33.997524"
       y1="264.57162"
       x2="33.997509"
       y2="326.81317" />
  </defs>
  <sodipodi:namedview
     id="base"
     pagecolor="#ffffff"
     bordercolor="#666666"
     borderopacity="1.0"
     inkscape:pageopacity="0.0"
     inkscape:pageshadow="2"
     inkscape:zoom="1.0117163"
     inkscape:cx="310.141"
     inkscape:cy="468.0639"
     inkscape:document-units="mm"
     inkscape:current-layer="layer1"
     showgrid="false"
     inkscape:window-width="1362"
     inkscape:window-height="728"
     inkscape:window-x="0"
     inkscape:window-y="18"
     inkscape:window-maximized="0"
     inkscape:pagecheckerboard="true" />
  <metadata
     id="metadata5">
    <rdf:RDF>
      <cc:Work
         rdf:about="">
        <dc:format>image/svg+xml</dc:format>
        <dc:type
           rdf:resource="http://purl.org/dc/dcmitype/StillImage" />
        <dc:title></dc:title>
      </cc:Work>
    </rdf:RDF>
  </metadata>
  <g
     inkscape:label="Layer 1"
     inkscape:groupmode="layer"
     id="layer1">
    <path
       style="fill:none;stroke:#000000;stroke-width:3.06709027;stroke-opacity:1"
       d="M 0.03515625 1015.4316 A 187.44285 187.44247 0 0 0 -92.904297 1176.0469 A 187.44285 187.44247 0 0 0 0 1200.8574 A 187.44285 187.44247 0 0 0 92.914062 1175.9375 A 187.44285 187.44247 0 0 0 0.03515625 1015.4316 z "
       transform="scale(0.26458333)"
       id="path3680" />
    <g
       transform="matrix(1,0,0,0.99999811,-215.2802,11.924446)"
       id="g4561">
      <ellipse
         id="ellipse4555"
         cx="25.000004"
         cy="268.65063"
         style="fill:none;stroke:#000000;stroke-width:0.81150097;stroke-opacity:1"
         rx="49.594254"
         ry="49.59425" />
      <ellipse
         ry="49.59425"
         rx="49.594254"
         style="fill:none;stroke:#000000;stroke-width:0.81150097;stroke-opacity:1"
         cy="268.65063"
         cx="75.000008"
         id="ellipse4557" />
      <ellipse
         ry="49.59425"
         rx="49.594254"
         style="fill:none;stroke:#000000;stroke-width:0.81150097;stroke-opacity:1"
         cy="225.34937"
         cx="50.000004"
         id="ellipse4559" />
    </g>
    <g
       id="g4618"
       transform="matrix(0.63122346,0,0,0.63122346,-3.2883532,-7.153188)"
       inkscape:export-xdpi="96"
       inkscape:export-ydpi="96">
      <rect
         transform="rotate(45)"
         y="68.181778"
         x="156.20468"
         height="71.69384"
         width="71.69384"
         id="rect4640"
         style="fill:url(#linearGradient4666);fill-opacity:1;stroke:none;stroke-width:3.3061626;stroke-miterlimit:4;stroke-dasharray:none;stroke-opacity:1" />
      <path
         style="fill:url(#radialGradient4614);fill-opacity:1;stroke:#ffffec;stroke-width:5.01987457;stroke-miterlimit:4;stroke-dasharray:none;stroke-opacity:1"
         d="m 62.095561,179.38201 a 49.594253,49.594153 0 0 0 -24.59023,42.49613 49.594253,49.594153 0 0 0 24.580928,6.56445 49.594253,49.594153 0 0 0 24.583516,-6.59339 49.594253,49.594153 0 0 0 -24.574214,-42.46719 z"
         id="path4589"
         inkscape:connector-curvature="0" />
    </g>
    <rect
       style="fill:url(#linearGradient6866);fill-opacity:1;stroke:none;stroke-width:2.08692741;stroke-miterlimit:4;stroke-dasharray:none;stroke-opacity:1"
       id="rect4640-2"
       width="45.254833"
       height="45.254833"
       x="141.42136"
       y="-9.8994951"
       transform="rotate(45)" />
    <path
       inkscape:connector-curvature="0"
       id="path4589-7"
       d="m 106.90782,106.07694 a 31.305056,31.304993 0 0 0 -15.521928,26.82456 31.305056,31.304993 0 0 0 15.516058,4.14363 31.305056,31.304993 0 0 0 15.51769,-4.1619 31.305056,31.304993 0 0 0 -15.51182,-26.80629 z"
       style="fill:none;fill-opacity:1;stroke:#ffffec;stroke-width:3.16866255;stroke-miterlimit:4;stroke-dasharray:none;stroke-opacity:1" />
    <path
       style="fill:url(#linearGradient6917);fill-opacity:1;stroke:none;stroke-width:7.88759947;stroke-miterlimit:4;stroke-dasharray:none;stroke-opacity:1"
       d="M 136.0625 623.62109 L 15.117188 744.56641 L 136.0625 865.51172 L 257.00781 744.56641 L 136.0625 623.62109 z M 135.7168 666.11133 L 138.73438 667.87695 C 176.6004 690.00061 200.01717 730.46225 200.33008 774.31641 L 200.35156 777.81445 L 197.32617 779.55664 C 178.57453 790.33162 157.33586 796.02332 135.70898 796.07812 L 135.69336 796.07812 L 135.68555 796.07812 C 114.0674 796.04437 92.827008 790.37161 74.070312 779.62305 L 71.035156 777.88867 L 71.058594 774.39062 C 71.354349 730.50237 94.793688 690.00371 132.69727 667.87695 L 135.7168 666.11133 z "
       transform="scale(0.26458333)"
       id="rect6911" />
    <path
       style="fill:url(#radialGradient6919);fill-opacity:1;stroke:none;stroke-width:11.97604752;stroke-miterlimit:4;stroke-dasharray:none;stroke-opacity:1"
       d="M 135.7168 680.25586 C 104.33181 699.97214 84.759205 733.80437 83.304688 770.83984 C 99.450701 779.40622 117.38651 784.07328 135.70117 784.10352 C 154.01753 784.05359 171.95248 779.36619 188.08984 770.7793 C 186.62454 733.77247 167.06969 699.96927 135.7168 680.25586 z "
       id="path6913"
       transform="scale(0.26458333)" />
    <path
       style="fill:url(#linearGradient6927);fill-opacity:1;stroke:none;stroke-width:7.88759947;stroke-miterlimit:4;stroke-dasharray:none;stroke-opacity:1"
       d="M 404.41016 623.62109 L 283.46484 744.56641 L 404.41016 865.51172 L 525.35352 744.56641 L 404.41016 623.62109 z M 404.0625 666.11133 L 407.08203 667.87695 C 444.94806 690.00061 468.36284 730.46225 468.67578 774.31641 L 468.69922 777.81445 L 465.67188 779.55664 C 446.92024 790.33162 425.68156 796.02332 404.05469 796.07812 L 404.04102 796.07812 L 404.0332 796.07812 C 382.41506 796.04437 361.17271 790.37161 342.41602 779.62305 L 339.38281 777.88867 L 339.4043 774.39062 C 339.70005 730.50237 363.13938 690.00371 401.04297 667.87695 L 404.0625 666.11133 z M 404.0625 680.25586 C 372.67753 699.97214 353.1049 733.80437 351.65039 770.83984 C 367.7964 779.40622 385.73219 784.07328 404.04688 784.10352 C 422.36322 784.05359 440.30016 779.36619 456.4375 770.7793 C 454.97221 733.77247 435.41542 699.96927 404.0625 680.25586 z "
       transform="scale(0.26458333)"
       id="rect6921" />
  </g>
</svg>
