<?xml version="1.0" encoding="UTF-8" standalone="no"?>
<!-- Created with Inkscape (http://www.inkscape.org/) -->

<svg
   xmlns:dc="http://purl.org/dc/elements/1.1/"
   xmlns:cc="http://creativecommons.org/ns#"
   xmlns:rdf="http://www.w3.org/1999/02/22-rdf-syntax-ns#"
   xmlns:svg="http://www.w3.org/2000/svg"
   xmlns="http://www.w3.org/2000/svg"
   xmlns:xlink="http://www.w3.org/1999/xlink"
   xmlns:sodipodi="http://sodipodi.sourceforge.net/DTD/sodipodi-0.dtd"
   xmlns:inkscape="http://www.inkscape.org/namespaces/inkscape"
   width="210mm"
   height="297mm"
   viewBox="0 0 210 297"
   version="1.1"
   id="svg8"
   inkscape:version="0.92.1 r"
   sodipodi:docname="acm logo v2.svg">
  <defs
     id="defs2">
    <marker
       inkscape:stockid="Arrow2Mend"
       orient="auto"
       refY="0.0"
       refX="0.0"
       id="Arrow2Mend"
       style="overflow:visible;"
       inkscape:isstock="true">
      <path
         id="path4573"
         style="fill-rule:evenodd;stroke-width:0.62500000;stroke-linejoin:round;"
         d="M 8.7185878,4.0337352 L -2.2072895,0.016013256 L 8.7185884,-4.0017078 C 6.9730900,-1.6296469 6.9831476,1.6157441 8.7185878,4.0337352 z "
         transform="scale(0.6) rotate(180) translate(0,0)" />
    </marker>
    <marker
       inkscape:stockid="Arrow2Mstart"
       orient="auto"
       refY="0.0"
       refX="0.0"
       id="Arrow2Mstart"
       style="overflow:visible"
       inkscape:isstock="true">
      <path
         id="path4570"
         style="fill-rule:evenodd;stroke-width:0.62500000;stroke-linejoin:round"
         d="M 8.7185878,4.0337352 L -2.2072895,0.016013256 L 8.7185884,-4.0017078 C 6.9730900,-1.6296469 6.9831476,1.6157441 8.7185878,4.0337352 z "
         transform="scale(0.6) translate(0,0)" />
    </marker>
    <marker
       inkscape:stockid="Arrow2Lend"
       orient="auto"
       refY="0.0"
       refX="0.0"
       id="Arrow2Lend"
       style="overflow:visible;"
       inkscape:isstock="true">
      <path
         id="path4567"
         style="fill-rule:evenodd;stroke-width:0.62500000;stroke-linejoin:round;"
         d="M 8.7185878,4.0337352 L -2.2072895,0.016013256 L 8.7185884,-4.0017078 C 6.9730900,-1.6296469 6.9831476,1.6157441 8.7185878,4.0337352 z "
         transform="scale(1.1) rotate(180) translate(1,0)" />
    </marker>
    <marker
       inkscape:stockid="Arrow2Lstart"
       orient="auto"
       refY="0.0"
       refX="0.0"
       id="Arrow2Lstart"
       style="overflow:visible"
       inkscape:isstock="true">
      <path
         id="path4564"
         style="fill-rule:evenodd;stroke-width:0.62500000;stroke-linejoin:round"
         d="M 8.7185878,4.0337352 L -2.2072895,0.016013256 L 8.7185884,-4.0017078 C 6.9730900,-1.6296469 6.9831476,1.6157441 8.7185878,4.0337352 z "
         transform="scale(1.1) translate(1,0)" />
    </marker>
    <marker
       inkscape:stockid="Arrow1Send"
       orient="auto"
       refY="0.0"
       refX="0.0"
       id="Arrow1Send"
       style="overflow:visible;"
       inkscape:isstock="true">
      <path
         id="path4561"
         d="M 0.0,0.0 L 5.0,-5.0 L -12.5,0.0 L 5.0,5.0 L 0.0,0.0 z "
         style="fill-rule:evenodd;stroke:#000000;stroke-width:1.0pt;"
         transform="scale(0.2) rotate(180) translate(6,0)" />
    </marker>
    <marker
       inkscape:stockid="Arrow1Sstart"
       orient="auto"
       refY="0.0"
       refX="0.0"
       id="Arrow1Sstart"
       style="overflow:visible"
       inkscape:isstock="true">
      <path
         id="path4558"
         d="M 0.0,0.0 L 5.0,-5.0 L -12.5,0.0 L 5.0,5.0 L 0.0,0.0 z "
         style="fill-rule:evenodd;stroke:#000000;stroke-width:1.0pt"
         transform="scale(0.2) translate(6,0)" />
    </marker>
    <marker
       inkscape:stockid="Arrow1Mend"
       orient="auto"
       refY="0.0"
       refX="0.0"
       id="Arrow1Mend"
       style="overflow:visible;"
       inkscape:isstock="true">
      <path
         id="path4555"
         d="M 0.0,0.0 L 5.0,-5.0 L -12.5,0.0 L 5.0,5.0 L 0.0,0.0 z "
         style="fill-rule:evenodd;stroke:#000000;stroke-width:1.0pt;"
         transform="scale(0.4) rotate(180) translate(10,0)" />
    </marker>
    <marker
       inkscape:stockid="Arrow1Mstart"
       orient="auto"
       refY="0.0"
       refX="0.0"
       id="Arrow1Mstart"
       style="overflow:visible"
       inkscape:isstock="true">
      <path
         id="path4552"
         d="M 0.0,0.0 L 5.0,-5.0 L -12.5,0.0 L 5.0,5.0 L 0.0,0.0 z "
         style="fill-rule:evenodd;stroke:#000000;stroke-width:1.0pt"
         transform="scale(0.4) translate(10,0)" />
    </marker>
    <marker
       inkscape:stockid="Arrow1Lend"
       orient="auto"
       refY="0.0"
       refX="0.0"
       id="Arrow1Lend"
       style="overflow:visible;"
       inkscape:isstock="true">
      <path
         id="path4549"
         d="M 0.0,0.0 L 5.0,-5.0 L -12.5,0.0 L 5.0,5.0 L 0.0,0.0 z "
         style="fill-rule:evenodd;stroke:#000000;stroke-width:1.0pt;"
         transform="scale(0.8) rotate(180) translate(12.5,0)" />
    </marker>
    <marker
       inkscape:stockid="Arrow1Lstart"
       orient="auto"
       refY="0.0"
       refX="0.0"
       id="Arrow1Lstart"
       style="overflow:visible"
       inkscape:isstock="true">
      <path
         id="path4546"
         d="M 0.0,0.0 L 5.0,-5.0 L -12.5,0.0 L 5.0,5.0 L 0.0,0.0 z "
         style="fill-rule:evenodd;stroke:#000000;stroke-width:1.0pt"
         transform="scale(0.8) translate(12.5,0)" />
    </marker>
    <linearGradient
       inkscape:collect="always"
       id="linearGradient4620">
      <stop
         style="stop-color:#7fc2ec;stop-opacity:1"
         offset="0"
         id="stop4616" />
      <stop
         style="stop-color:#3892c1;stop-opacity:1"
         offset="1"
         id="stop4618" />
    </linearGradient>
    <linearGradient
       inkscape:collect="always"
       id="linearGradient4601">
      <stop
         style="stop-color:#7fc2ec;stop-opacity:1"
         offset="0"
         id="stop4597" />
      <stop
         style="stop-color:#3892c1;stop-opacity:1"
         offset="1"
         id="stop4599" />
    </linearGradient>
    <radialGradient
       inkscape:collect="always"
       xlink:href="#linearGradient4620"
       id="radialGradient4634"
       gradientUnits="userSpaceOnUse"
       gradientTransform="matrix(0.02534469,1.7819408,-1.9517721,0.02776,502.31827,33.168511)"
       cx="95.725365"
       cy="209.56291"
       fx="95.725365"
       fy="209.56291"
       r="37.344666" />
    <radialGradient
       inkscape:collect="always"
       xlink:href="#linearGradient4601"
       id="radialGradient4636"
       gradientUnits="userSpaceOnUse"
       gradientTransform="matrix(2.5108776,0.05506226,-0.04287999,1.9553577,-132.01994,-249.98659)"
       cx="94.671555"
       cy="256.93698"
       fx="94.671555"
       fy="256.93698"
       r="24.582222" />
    <linearGradient
       inkscape:collect="always"
       xlink:href="#linearGradient4620"
       id="linearGradient4656"
       gradientUnits="userSpaceOnUse"
       x1="-33.997524"
       y1="264.57162"
       x2="33.997509"
       y2="326.81317"
       gradientTransform="matrix(1.0543983,0,0,1.1518638,211.28354,-129.31386)" />
    <linearGradient
       inkscape:collect="always"
       xlink:href="#linearGradient4620"
       id="linearGradient4666"
       gradientUnits="userSpaceOnUse"
       gradientTransform="matrix(1.7787313,1.7787313,-1.943152,1.943152,708.8874,-102.13425)"
       x1="-33.997524"
       y1="264.57162"
       x2="33.997509"
       y2="326.81317" />
    <linearGradient
       inkscape:collect="always"
       xlink:href="#linearGradient4620"
       id="linearGradient4571"
       gradientUnits="userSpaceOnUse"
       gradientTransform="matrix(0.66556088,0,0,0.72708338,164.12935,-202.34567)"
       x1="-33.997524"
       y1="264.57162"
       x2="33.997509"
       y2="326.81317" />
    <radialGradient
       inkscape:collect="always"
       xlink:href="#linearGradient4620"
       id="radialGradient4534"
       cx="-0.48145238"
       cy="317.30359"
       fx="-0.48145238"
       fy="317.30359"
       r="24.582222"
       gradientTransform="matrix(1.1552456,0.00523227,-0.00399848,0.88283075,108.65874,-143.33929)"
       gradientUnits="userSpaceOnUse" />
  </defs>
  <sodipodi:namedview
     id="base"
     pagecolor="#ffffff"
     bordercolor="#666666"
     borderopacity="1.0"
     inkscape:pageopacity="0.0"
     inkscape:pageshadow="2"
     inkscape:zoom="1.4307829"
     inkscape:cx="142.04671"
     inkscape:cy="672.98734"
     inkscape:document-units="mm"
     inkscape:current-layer="layer1"
     showgrid="false"
     inkscape:window-width="1362"
     inkscape:window-height="728"
     inkscape:window-x="0"
     inkscape:window-y="18"
     inkscape:window-maximized="0"
     showguides="false" />
  <metadata
     id="metadata5">
    <rdf:RDF>
      <cc:Work
         rdf:about="">
        <dc:format>image/svg+xml</dc:format>
        <dc:type
           rdf:resource="http://purl.org/dc/dcmitype/StillImage" />
        <dc:title></dc:title>
      </cc:Work>
    </rdf:RDF>
  </metadata>
  <g
     inkscape:label="Layer 1"
     inkscape:groupmode="layer"
     id="layer1">
    <path
       style="fill:none;stroke:#000000;stroke-width:3.06709027;stroke-opacity:1"
       d="M 0.03515625 1015.4316 A 187.44285 187.44247 0 0 0 -92.904297 1176.0469 A 187.44285 187.44247 0 0 0 0 1200.8574 A 187.44285 187.44247 0 0 0 92.914062 1175.9375 A 187.44285 187.44247 0 0 0 0.03515625 1015.4316 z "
       transform="scale(0.26458333)"
       id="path3680" />
    <g
       transform="matrix(1,0,0,0.99999811,-215.2802,11.924446)"
       id="g4561">
      <ellipse
         id="ellipse4555"
         cx="25.000004"
         cy="268.65063"
         style="fill:none;stroke:#000000;stroke-width:0.81150097;stroke-opacity:1"
         rx="49.594254"
         ry="49.59425" />
      <ellipse
         ry="49.59425"
         rx="49.594254"
         style="fill:none;stroke:#000000;stroke-width:0.81150097;stroke-opacity:1"
         cy="268.65063"
         cx="75.000008"
         id="ellipse4557" />
      <ellipse
         ry="49.59425"
         rx="49.594254"
         style="fill:none;stroke:#000000;stroke-width:0.81150097;stroke-opacity:1"
         cy="225.34937"
         cx="50.000004"
         id="ellipse4559" />
    </g>
    <path
       style="fill:url(#linearGradient4666);fill-opacity:1;stroke:none;stroke-width:7.88759947;stroke-miterlimit:4;stroke-dasharray:none;stroke-opacity:1"
       d="M 134.3125 351.49609 L 13.367188 472.44141 L 134.3125 593.38672 L 255.25781 472.44141 L 134.3125 351.49609 z M 133.9668 393.98633 L 136.98633 395.75 C 174.85233 417.87365 198.26713 458.33533 198.58008 502.18945 L 198.60156 505.68945 L 195.57617 507.43164 C 176.82453 518.20662 155.58586 523.89637 133.95898 523.95117 L 133.94336 523.95117 L 133.92969 523.95117 C 112.31154 523.91742 91.077004 518.24661 72.320312 507.49805 L 69.287109 505.76367 L 69.308594 502.26367 C 69.604361 458.37542 93.043703 417.87675 130.94727 395.75 L 133.9668 393.98633 z M 133.95898 408.13672 C 102.57909 427.8538 83.009084 461.68085 81.554688 498.71289 C 97.700705 507.27927 115.63651 511.94828 133.95117 511.97852 C 152.26753 511.92859 170.20443 507.24119 186.3418 498.6543 C 184.87652 461.64834 165.31057 427.85036 133.95898 408.13672 z "
       id="rect4640"
       transform="scale(0.26458333)" />
    <g
       inkscape:export-ydpi="96"
       inkscape:export-xdpi="96"
       transform="matrix(0.85688274,0,0,0.85688276,97.295597,-77.803449)"
       id="g4544">
      <circle
         style="fill:url(#radialGradient4634);fill-opacity:1;stroke:none;stroke-width:0.31066668;stroke-opacity:1"
         id="circle4628"
         cx="95.716064"
         cy="237.89664"
         r="37.344666" />
      <path
         inkscape:connector-curvature="0"
         id="path4630"
         d="m 95.725366,209.56291 a 49.594253,49.594153 0 0 0 -24.59023,42.49613 49.594253,49.594153 0 0 0 24.580928,6.56445 49.594253,49.594153 0 0 0 24.583516,-6.59339 49.594253,49.594153 0 0 0 -24.574214,-42.46719 z"
         style="fill:url(#radialGradient4636);fill-opacity:1;stroke:#ffffec;stroke-width:5.10991812;stroke-miterlimit:4;stroke-dasharray:none;stroke-opacity:1" />
    </g>
    <rect
       transform="rotate(45)"
       y="-9.980052"
       x="141.50192"
       height="45.254833"
       width="45.254833"
       id="rect4569"
       style="fill:url(#linearGradient4571);fill-opacity:1;stroke:none;stroke-width:2.08692741;stroke-miterlimit:4;stroke-dasharray:none;stroke-opacity:1" />
    <circle
       cy="-125"
       cx="-107.11393"
       id="circle4628-2"
       style="fill:#ffffec;fill-opacity:1;stroke:none;stroke-width:1.57301331;stroke-miterlimit:4;stroke-dasharray:none;stroke-opacity:1"
       r="19.577288"
       transform="scale(-1)" />
    <path
       style="fill:url(#radialGradient4534);fill-opacity:1;stroke:none;stroke-width:1.74545443;stroke-miterlimit:4;stroke-dasharray:none;stroke-opacity:1"
       d="m 107.02897,108.6053 a 28.854837,28.854779 0 0 0 -14.307047,24.72502 28.854837,28.854779 0 0 0 14.301627,3.81932 28.854837,28.854779 0 0 0 14.30314,-3.83616 28.854837,28.854779 0 0 0 -14.29772,-24.70818 z"
       id="path4630-9"
       inkscape:connector-curvature="0" />
  </g>
</svg>
