<?xml version="1.0" encoding="UTF-8" standalone="no"?>
<!-- Created with Inkscape (http://www.inkscape.org/) -->

<svg
   xmlns:dc="http://purl.org/dc/elements/1.1/"
   xmlns:cc="http://creativecommons.org/ns#"
   xmlns:rdf="http://www.w3.org/1999/02/22-rdf-syntax-ns#"
   xmlns:svg="http://www.w3.org/2000/svg"
   xmlns="http://www.w3.org/2000/svg"
   xmlns:xlink="http://www.w3.org/1999/xlink"
   xmlns:sodipodi="http://sodipodi.sourceforge.net/DTD/sodipodi-0.dtd"
   xmlns:inkscape="http://www.inkscape.org/namespaces/inkscape"
   width="210mm"
   height="297mm"
   viewBox="0 0 210 297"
   version="1.1"
   id="svg8"
   inkscape:version="0.92.1 r"
   sodipodi:docname="acm logo.svg">
  <defs
     id="defs2">
    <marker
       inkscape:stockid="Arrow2Mend"
       orient="auto"
       refY="0.0"
       refX="0.0"
       id="Arrow2Mend"
       style="overflow:visible;"
       inkscape:isstock="true">
      <path
         id="path4573"
         style="fill-rule:evenodd;stroke-width:0.62500000;stroke-linejoin:round;"
         d="M 8.7185878,4.0337352 L -2.2072895,0.016013256 L 8.7185884,-4.0017078 C 6.9730900,-1.6296469 6.9831476,1.6157441 8.7185878,4.0337352 z "
         transform="scale(0.6) rotate(180) translate(0,0)" />
    </marker>
    <marker
       inkscape:stockid="Arrow2Mstart"
       orient="auto"
       refY="0.0"
       refX="0.0"
       id="Arrow2Mstart"
       style="overflow:visible"
       inkscape:isstock="true">
      <path
         id="path4570"
         style="fill-rule:evenodd;stroke-width:0.62500000;stroke-linejoin:round"
         d="M 8.7185878,4.0337352 L -2.2072895,0.016013256 L 8.7185884,-4.0017078 C 6.9730900,-1.6296469 6.9831476,1.6157441 8.7185878,4.0337352 z "
         transform="scale(0.6) translate(0,0)" />
    </marker>
    <marker
       inkscape:stockid="Arrow2Lend"
       orient="auto"
       refY="0.0"
       refX="0.0"
       id="Arrow2Lend"
       style="overflow:visible;"
       inkscape:isstock="true">
      <path
         id="path4567"
         style="fill-rule:evenodd;stroke-width:0.62500000;stroke-linejoin:round;"
         d="M 8.7185878,4.0337352 L -2.2072895,0.016013256 L 8.7185884,-4.0017078 C 6.9730900,-1.6296469 6.9831476,1.6157441 8.7185878,4.0337352 z "
         transform="scale(1.1) rotate(180) translate(1,0)" />
    </marker>
    <marker
       inkscape:stockid="Arrow2Lstart"
       orient="auto"
       refY="0.0"
       refX="0.0"
       id="Arrow2Lstart"
       style="overflow:visible"
       inkscape:isstock="true">
      <path
         id="path4564"
         style="fill-rule:evenodd;stroke-width:0.62500000;stroke-linejoin:round"
         d="M 8.7185878,4.0337352 L -2.2072895,0.016013256 L 8.7185884,-4.0017078 C 6.9730900,-1.6296469 6.9831476,1.6157441 8.7185878,4.0337352 z "
         transform="scale(1.1) translate(1,0)" />
    </marker>
    <marker
       inkscape:stockid="Arrow1Send"
       orient="auto"
       refY="0.0"
       refX="0.0"
       id="Arrow1Send"
       style="overflow:visible;"
       inkscape:isstock="true">
      <path
         id="path4561"
         d="M 0.0,0.0 L 5.0,-5.0 L -12.5,0.0 L 5.0,5.0 L 0.0,0.0 z "
         style="fill-rule:evenodd;stroke:#000000;stroke-width:1.0pt;"
         transform="scale(0.2) rotate(180) translate(6,0)" />
    </marker>
    <marker
       inkscape:stockid="Arrow1Sstart"
       orient="auto"
       refY="0.0"
       refX="0.0"
       id="Arrow1Sstart"
       style="overflow:visible"
       inkscape:isstock="true">
      <path
         id="path4558"
         d="M 0.0,0.0 L 5.0,-5.0 L -12.5,0.0 L 5.0,5.0 L 0.0,0.0 z "
         style="fill-rule:evenodd;stroke:#000000;stroke-width:1.0pt"
         transform="scale(0.2) translate(6,0)" />
    </marker>
    <marker
       inkscape:stockid="Arrow1Mend"
       orient="auto"
       refY="0.0"
       refX="0.0"
       id="Arrow1Mend"
       style="overflow:visible;"
       inkscape:isstock="true">
      <path
         id="path4555"
         d="M 0.0,0.0 L 5.0,-5.0 L -12.5,0.0 L 5.0,5.0 L 0.0,0.0 z "
         style="fill-rule:evenodd;stroke:#000000;stroke-width:1.0pt;"
         transform="scale(0.4) rotate(180) translate(10,0)" />
    </marker>
    <marker
       inkscape:stockid="Arrow1Mstart"
       orient="auto"
       refY="0.0"
       refX="0.0"
       id="Arrow1Mstart"
       style="overflow:visible"
       inkscape:isstock="true">
      <path
         id="path4552"
         d="M 0.0,0.0 L 5.0,-5.0 L -12.5,0.0 L 5.0,5.0 L 0.0,0.0 z "
         style="fill-rule:evenodd;stroke:#000000;stroke-width:1.0pt"
         transform="scale(0.4) translate(10,0)" />
    </marker>
    <marker
       inkscape:stockid="Arrow1Lend"
       orient="auto"
       refY="0.0"
       refX="0.0"
       id="Arrow1Lend"
       style="overflow:visible;"
       inkscape:isstock="true">
      <path
         id="path4549"
         d="M 0.0,0.0 L 5.0,-5.0 L -12.5,0.0 L 5.0,5.0 L 0.0,0.0 z "
         style="fill-rule:evenodd;stroke:#000000;stroke-width:1.0pt;"
         transform="scale(0.8) rotate(180) translate(12.5,0)" />
    </marker>
    <marker
       inkscape:stockid="Arrow1Lstart"
       orient="auto"
       refY="0.0"
       refX="0.0"
       id="Arrow1Lstart"
       style="overflow:visible"
       inkscape:isstock="true">
      <path
         id="path4546"
         d="M 0.0,0.0 L 5.0,-5.0 L -12.5,0.0 L 5.0,5.0 L 0.0,0.0 z "
         style="fill-rule:evenodd;stroke:#000000;stroke-width:1.0pt"
         transform="scale(0.8) translate(12.5,0)" />
    </marker>
    <linearGradient
       inkscape:collect="always"
       id="linearGradient4620">
      <stop
         style="stop-color:#7fc2ec;stop-opacity:1"
         offset="0"
         id="stop4616" />
      <stop
         style="stop-color:#3892c1;stop-opacity:1"
         offset="1"
         id="stop4618" />
    </linearGradient>
    <linearGradient
       inkscape:collect="always"
       id="linearGradient4601">
      <stop
         style="stop-color:#7fc2ec;stop-opacity:1"
         offset="0"
         id="stop4597" />
      <stop
         style="stop-color:#3892c1;stop-opacity:1"
         offset="1"
         id="stop4599" />
    </linearGradient>
    <radialGradient
       inkscape:collect="always"
       xlink:href="#linearGradient4601"
       id="radialGradient4614"
       cx="94.671555"
       cy="256.93698"
       fx="94.671555"
       fy="256.93698"
       r="24.582222"
       gradientTransform="matrix(2.5108776,0.05506226,-0.04287999,1.9553577,-165.64975,-280.16749)"
       gradientUnits="userSpaceOnUse" />
    <radialGradient
       inkscape:collect="always"
       xlink:href="#linearGradient4620"
       id="radialGradient4634"
       gradientUnits="userSpaceOnUse"
       gradientTransform="matrix(0.02534469,1.7819408,-1.9517721,0.02776,502.31827,33.168511)"
       cx="95.725365"
       cy="209.56291"
       fx="95.725365"
       fy="209.56291"
       r="37.344666" />
    <radialGradient
       inkscape:collect="always"
       xlink:href="#linearGradient4601"
       id="radialGradient4636"
       gradientUnits="userSpaceOnUse"
       gradientTransform="matrix(2.5108776,0.05506226,-0.04287999,1.9553577,-132.01994,-249.98659)"
       cx="94.671555"
       cy="256.93698"
       fx="94.671555"
       fy="256.93698"
       r="24.582222" />
    <linearGradient
       inkscape:collect="always"
       xlink:href="#linearGradient4620"
       id="linearGradient4656"
       gradientUnits="userSpaceOnUse"
       x1="-33.997524"
       y1="264.57162"
       x2="33.997509"
       y2="326.81317"
       gradientTransform="matrix(1.0543983,0,0,1.1518638,211.28354,-129.31386)" />
    <linearGradient
       inkscape:collect="always"
       xlink:href="#linearGradient4620"
       id="linearGradient4666"
       gradientUnits="userSpaceOnUse"
       gradientTransform="matrix(1.0543983,0,0,1.1518638,192.05164,-236.56866)"
       x1="-33.997524"
       y1="264.57162"
       x2="33.997509"
       y2="326.81317" />
    <linearGradient
       inkscape:collect="always"
       xlink:href="#linearGradient4620"
       id="linearGradient4571"
       gradientUnits="userSpaceOnUse"
       gradientTransform="matrix(1.1439328,0,0,1.2496746,210.01074,-159.50857)"
       x1="-33.997524"
       y1="264.57162"
       x2="33.997509"
       y2="326.81317" />
    <radialGradient
       inkscape:collect="always"
       xlink:href="#linearGradient4620"
       id="radialGradient4534"
       cx="-0.48145238"
       cy="317.30359"
       fx="-0.48145238"
       fy="317.30359"
       r="24.582222"
       gradientTransform="matrix(1.9855784,0.00899297,-0.00687238,1.5173654,2.655139,-164.20817)"
       gradientUnits="userSpaceOnUse" />
  </defs>
  <sodipodi:namedview
     id="base"
     pagecolor="#ffffff"
     bordercolor="#666666"
     borderopacity="1.0"
     inkscape:pageopacity="0.0"
     inkscape:pageshadow="2"
     inkscape:zoom="0.50585814"
     inkscape:cx="564.14591"
     inkscape:cy="621.89252"
     inkscape:document-units="mm"
     inkscape:current-layer="layer1"
     showgrid="false"
     inkscape:window-width="1362"
     inkscape:window-height="728"
     inkscape:window-x="0"
     inkscape:window-y="18"
     inkscape:window-maximized="0" />
  <metadata
     id="metadata5">
    <rdf:RDF>
      <cc:Work
         rdf:about="">
        <dc:format>image/svg+xml</dc:format>
        <dc:type
           rdf:resource="http://purl.org/dc/dcmitype/StillImage" />
        <dc:title />
      </cc:Work>
    </rdf:RDF>
  </metadata>
  <g
     inkscape:label="Layer 1"
     inkscape:groupmode="layer"
     id="layer1">
    <path
       style="fill:none;stroke:#000000;stroke-width:3.06709027;stroke-opacity:1"
       d="M 0.03515625 1015.4316 A 187.44285 187.44247 0 0 0 -92.904297 1176.0469 A 187.44285 187.44247 0 0 0 0 1200.8574 A 187.44285 187.44247 0 0 0 92.914062 1175.9375 A 187.44285 187.44247 0 0 0 0.03515625 1015.4316 z "
       transform="scale(0.26458333)"
       id="path3680" />
    <g
       transform="matrix(1,0,0,0.99999811,-215.2802,11.924446)"
       id="g4561">
      <ellipse
         id="ellipse4555"
         cx="25.000004"
         cy="268.65063"
         style="fill:none;stroke:#000000;stroke-width:0.81150097;stroke-opacity:1"
         rx="49.594254"
         ry="49.59425" />
      <ellipse
         ry="49.59425"
         rx="49.594254"
         style="fill:none;stroke:#000000;stroke-width:0.81150097;stroke-opacity:1"
         cy="268.65063"
         cx="75.000008"
         id="ellipse4557" />
      <ellipse
         ry="49.59425"
         rx="49.594254"
         style="fill:none;stroke:#000000;stroke-width:0.81150097;stroke-opacity:1"
         cy="225.34937"
         cx="50.000004"
         id="ellipse4559" />
    </g>
    <g
       id="g4618"
       transform="matrix(0.63122346,0,0,0.63122346,-3.7516226,-7.153188)"
       inkscape:export-xdpi="96"
       inkscape:export-ydpi="96">
      <rect
         transform="rotate(45)"
         y="68.181778"
         x="156.20468"
         height="71.69384"
         width="71.69384"
         id="rect4640"
         style="fill:url(#linearGradient4666);fill-opacity:1;stroke:none;stroke-width:3.3061626;stroke-miterlimit:4;stroke-dasharray:none;stroke-opacity:1" />
      <path
         style="fill:url(#radialGradient4614);fill-opacity:1;stroke:#ffffec;stroke-width:5.01987457;stroke-miterlimit:4;stroke-dasharray:none;stroke-opacity:1"
         d="m 62.095561,179.38201 a 49.594253,49.594153 0 0 0 -24.59023,42.49613 49.594253,49.594153 0 0 0 24.580928,6.56445 49.594253,49.594153 0 0 0 24.583516,-6.59339 49.594253,49.594153 0 0 0 -24.574214,-42.46719 z"
         id="path4589"
         inkscape:connector-curvature="0" />
    </g>
    <g
       transform="matrix(0.78346115,0,0,0.78212227,101.05828,-61.322352)"
       id="g4632"
       inkscape:export-xdpi="96"
       inkscape:export-ydpi="96">
      <g
         id="g4544"
         transform="matrix(1.0937144,0,0,1.0955867,-4.802642,-21.072277)"
         inkscape:export-xdpi="96"
         inkscape:export-ydpi="96">
        <circle
           r="37.344666"
           cy="237.89664"
           cx="95.716064"
           id="circle4628"
           style="fill:url(#radialGradient4634);fill-opacity:1;stroke:none;stroke-width:0.31066668;stroke-opacity:1" />
        <path
           style="fill:url(#radialGradient4636);fill-opacity:1;stroke:#ffffec;stroke-width:5.10991812;stroke-miterlimit:4;stroke-dasharray:none;stroke-opacity:1"
           d="m 95.725366,209.56291 a 49.594253,49.594153 0 0 0 -24.59023,42.49613 49.594253,49.594153 0 0 0 24.580928,6.56445 49.594253,49.594153 0 0 0 24.583516,-6.59339 49.594253,49.594153 0 0 0 -24.574214,-42.46719 z"
           id="path4630"
           inkscape:connector-curvature="0" />
      </g>
    </g>
    <g
       id="g4540"
       transform="matrix(1.0301331,0,0,1.0301331,-2.8022235,-0.73579505)"
       inkscape:export-xdpi="96"
       inkscape:export-ydpi="96">
      <g
         inkscape:export-ydpi="96"
         inkscape:export-xdpi="96"
         transform="matrix(0.56479901,0,0,0.56479901,106.70092,-45.687491)"
         id="g4614">
        <rect
           transform="rotate(45)"
           y="171.11984"
           x="171.11984"
           height="77.781746"
           width="77.781746"
           id="rect4569"
           style="fill:url(#linearGradient4571);fill-opacity:1;stroke:none;stroke-width:3.58690643;stroke-miterlimit:4;stroke-dasharray:none;stroke-opacity:1" />
        <circle
           cy="-297"
           cx="-1.0728836e-06"
           id="circle4628-2"
           style="fill:#ffffec;fill-opacity:1;stroke:none;stroke-width:2.70361662;stroke-miterlimit:4;stroke-dasharray:none;stroke-opacity:1"
           r="33.648464"
           transform="scale(-1)" />
        <path
           style="fill:url(#radialGradient4534);fill-opacity:1;stroke:none;stroke-width:3;stroke-miterlimit:4;stroke-dasharray:none;stroke-opacity:1"
           d="m -0.146033,268.82161 a 49.594253,49.594153 0 0 0 -24.59023,42.49613 49.594253,49.594153 0 0 0 24.580928,6.56445 49.594253,49.594153 0 0 0 24.583516,-6.59339 49.594253,49.594153 0 0 0 -24.574214,-42.46719 z"
           id="path4630-9"
           inkscape:connector-curvature="0" />
      </g>
    </g>
  </g>
</svg>
