<?xml version="1.0" encoding="UTF-8" standalone="no"?>
<!-- Created with Inkscape (http://www.inkscape.org/) -->

<svg
   xmlns:dc="http://purl.org/dc/elements/1.1/"
   xmlns:cc="http://creativecommons.org/ns#"
   xmlns:rdf="http://www.w3.org/1999/02/22-rdf-syntax-ns#"
   xmlns:svg="http://www.w3.org/2000/svg"
   xmlns="http://www.w3.org/2000/svg"
   xmlns:xlink="http://www.w3.org/1999/xlink"
   xmlns:sodipodi="http://sodipodi.sourceforge.net/DTD/sodipodi-0.dtd"
   xmlns:inkscape="http://www.inkscape.org/namespaces/inkscape"
   width="219.67403mm"
   height="397.83218mm"
   viewBox="0 0 219.67402 397.83217"
   version="1.1"
   id="svg8"
   inkscape:version="0.92.1 r"
   sodipodi:docname="acm logo v7.svg"
   inkscape:export-filename="/home/sam/Documents/acm logo options v4.png"
   inkscape:export-xdpi="96"
   inkscape:export-ydpi="96">
  <defs
     id="defs2">
    <linearGradient
       inkscape:collect="always"
       id="linearGradient8701">
      <stop
         style="stop-color:#0085c8;stop-opacity:1;"
         offset="0"
         id="stop8697" />
      <stop
         style="stop-color:#0fadde;stop-opacity:1"
         offset="1"
         id="stop8699" />
    </linearGradient>
    <linearGradient
       inkscape:collect="always"
       xlink:href="#linearGradient8701"
       id="linearGradient8703"
       x1="500.91931"
       y1="226.77145"
       x2="500.91928"
       y2="0"
       gradientUnits="userSpaceOnUse"
       gradientTransform="matrix(0.26458333,0,0,0.26458333,-16.899771,113.10751)" />
    <linearGradient
       inkscape:collect="always"
       xlink:href="#linearGradient4620"
       id="linearGradient6927"
       gradientUnits="userSpaceOnUse"
       gradientTransform="matrix(0.47062265,0.47062265,-0.51412565,0.51412565,523.94691,202.91651)"
       x1="-33.997524"
       y1="264.57162"
       x2="33.997509"
       y2="326.81317" />
    <linearGradient
       inkscape:collect="always"
       id="linearGradient4620">
      <stop
         style="stop-color:#7fc2ec;stop-opacity:1"
         offset="0"
         id="stop4616" />
      <stop
         style="stop-color:#3892c1;stop-opacity:1"
         offset="1"
         id="stop4618" />
    </linearGradient>
    <linearGradient
       inkscape:collect="always"
       xlink:href="#linearGradient8701"
       id="linearGradient4871"
       gradientUnits="userSpaceOnUse"
       gradientTransform="matrix(0.47062265,0.47062265,-0.51412565,0.51412565,523.94691,202.91651)"
       x1="-33.997524"
       y1="264.57162"
       x2="33.997509"
       y2="326.81317" />
    <linearGradient
       inkscape:collect="always"
       xlink:href="#linearGradient4620"
       id="linearGradient4879"
       x1="262.27838"
       y1="351.65851"
       x2="336.21143"
       y2="351.65851"
       gradientUnits="userSpaceOnUse" />
    <linearGradient
       inkscape:collect="always"
       xlink:href="#linearGradient4620"
       id="linearGradient4881"
       x1="407.01016"
       y1="355.36053"
       x2="458.73468"
       y2="355.36053"
       gradientUnits="userSpaceOnUse" />
  </defs>
  <sodipodi:namedview
     id="base"
     pagecolor="#ffffff"
     bordercolor="#666666"
     borderopacity="1.0"
     inkscape:pageopacity="0.0"
     inkscape:pageshadow="2"
     inkscape:zoom="0.25"
     inkscape:cx="1280.8634"
     inkscape:cy="418.28653"
     inkscape:document-units="mm"
     inkscape:current-layer="layer1"
     showgrid="false"
     inkscape:window-width="1362"
     inkscape:window-height="725"
     inkscape:window-x="0"
     inkscape:window-y="20"
     inkscape:window-maximized="0"
     showguides="false"
     fit-margin-top="0"
     fit-margin-left="0"
     fit-margin-right="0"
     fit-margin-bottom="0" />
  <metadata
     id="metadata5">
    <rdf:RDF>
      <cc:Work
         rdf:about="">
        <dc:format>image/svg+xml</dc:format>
        <dc:type
           rdf:resource="http://purl.org/dc/dcmitype/StillImage" />
        <dc:title></dc:title>
      </cc:Work>
    </rdf:RDF>
  </metadata>
  <g
     inkscape:label="Layer 1"
     inkscape:groupmode="layer"
     id="layer1"
     transform="translate(-239.06066,-49.10729)">
    <g
       id="g3699"
       transform="translate(0,5.1663271)">
      <path
         sodipodi:nodetypes="ccccccccccccccc"
         inkscape:connector-curvature="0"
         id="path8506"
         d="m 371.92403,113.10751 -29.99973,30.00023 29.99973,29.99972 30.00023,-29.99972 z m 0,12.0003 c 9.94108,3e-5 17.99991,8.05885 17.99995,17.99993 -3e-5,9.94108 -8.05887,17.99991 -17.99995,17.99994 -9.94107,-4e-5 -17.99989,-8.05887 -17.99992,-17.99994 4e-5,-9.94107 8.05885,-17.99989 17.99992,-17.99993 z m -0.0847,1.60507 c -8.80032,5.13726 -14.23847,14.5353 -14.30713,24.7251 4.35393,2.49506 9.28328,3.81152 14.30145,3.81941 5.02041,-0.0127 9.95063,-1.33509 14.30353,-3.83646 -0.0727,-10.18181 -5.50631,-19.57156 -14.29785,-24.70805 z"
         style="fill:url(#linearGradient8703);fill-opacity:1;stroke:none;stroke-width:1.95649457;stroke-miterlimit:4;stroke-dasharray:none;stroke-opacity:1" />
      <text
         xml:space="preserve"
         style="font-style:normal;font-variant:normal;font-weight:bold;font-stretch:normal;font-size:29.63333321px;line-height:1.25;font-family:sans-serif;-inkscape-font-specification:'sans-serif Bold';letter-spacing:0px;word-spacing:0px;fill:#0085c8;fill-opacity:1;stroke:none;stroke-width:0.73727745"
         x="260.30612"
         y="149.5824"
         id="text8512"
         inkscape:export-xdpi="96"
         inkscape:export-ydpi="96"><tspan
           sodipodi:role="line"
           id="tspan8510"
           x="260.30612"
           y="149.5824"
           style="font-style:normal;font-variant:normal;font-weight:bold;font-stretch:normal;font-size:29.63333321px;font-family:Linotte;-inkscape-font-specification:'Linotte Bold';fill:#0085c8;fill-opacity:1;stroke-width:0.73727745">mines</tspan></text>
      <text
         xml:space="preserve"
         style="font-style:normal;font-weight:normal;font-size:29.63333321px;line-height:1.25;font-family:sans-serif;letter-spacing:0px;word-spacing:0px;fill:#0085c8;fill-opacity:1;stroke:none;stroke-width:0.26458332"
         x="405.82483"
         y="149.58038"
         id="text8516"
         inkscape:export-xdpi="96"
         inkscape:export-ydpi="96"><tspan
           sodipodi:role="line"
           id="tspan8514"
           x="405.82483"
           y="149.58038"
           style="font-style:normal;font-variant:normal;font-weight:bold;font-stretch:normal;font-size:29.63333321px;font-family:Linotte;-inkscape-font-specification:'Linotte Bold';fill:#0085c8;fill-opacity:1;stroke-width:0.26458332">acm</tspan></text>
    </g>
    <g
       id="g3711"
       transform="translate(-23.386837,72.332737)">
      <path
         style="fill:#0085c8;fill-opacity:1;stroke:none;stroke-width:1.95649457;stroke-miterlimit:4;stroke-dasharray:none;stroke-opacity:1"
         d="m 371.92403,113.10751 -29.99973,30.00023 29.99973,29.99972 30.00023,-29.99972 z m 0,12.0003 c 9.94108,3e-5 17.99991,8.05885 17.99995,17.99993 -3e-5,9.94108 -8.05887,17.99991 -17.99995,17.99994 -9.94107,-4e-5 -17.99989,-8.05887 -17.99992,-17.99994 4e-5,-9.94107 8.05885,-17.99989 17.99992,-17.99993 z"
         id="path3701"
         inkscape:connector-curvature="0"
         sodipodi:nodetypes="cccccccccc" />
      <text
         inkscape:export-ydpi="96"
         inkscape:export-xdpi="96"
         id="text3705"
         y="149.5824"
         x="403.09567"
         style="font-style:normal;font-variant:normal;font-weight:bold;font-stretch:normal;font-size:29.63333321px;line-height:1.25;font-family:sans-serif;-inkscape-font-specification:'sans-serif Bold';letter-spacing:0px;word-spacing:0px;fill:#0085c8;fill-opacity:1;stroke:none;stroke-width:0.73727745"
         xml:space="preserve"><tspan
           style="font-style:normal;font-variant:normal;font-weight:bold;font-stretch:normal;font-size:29.63333321px;font-family:Linotte;-inkscape-font-specification:'Linotte Bold';fill:#0085c8;fill-opacity:1;stroke-width:0.73727745"
           y="149.5824"
           x="403.09567"
           id="tspan3703"
           sodipodi:role="line">mines</tspan></text>
      <text
         inkscape:export-ydpi="96"
         inkscape:export-xdpi="96"
         id="text3709"
         y="149.58038"
         x="284.47989"
         style="font-style:normal;font-weight:normal;font-size:29.63333321px;line-height:1.25;font-family:sans-serif;letter-spacing:0px;word-spacing:0px;fill:#0085c8;fill-opacity:1;stroke:none;stroke-width:0.26458332"
         xml:space="preserve"><tspan
           style="font-style:normal;font-variant:normal;font-weight:bold;font-stretch:normal;font-size:29.63333321px;font-family:Linotte;-inkscape-font-specification:'Linotte Bold';fill:#0085c8;fill-opacity:1;stroke-width:0.26458332"
           y="149.58038"
           x="284.47989"
           id="tspan3707"
           sodipodi:role="line">acm</tspan></text>
      <g
         aria-label="@"
         style="font-style:normal;font-weight:normal;font-size:35.27777863px;line-height:1.25;font-family:sans-serif;letter-spacing:0px;word-spacing:0px;fill:#0085c8;fill-opacity:1;stroke:none;stroke-width:0.26458332"
         id="text3717">
        <path
           d="m 378.63737,140.6116 0.3175,-2.25778 c 0.14111,-1.05833 -0.38806,-1.83444 -1.55222,-1.83444 -0.70556,0 -1.16417,0.35277 -1.44639,0.9525 -0.0706,0.28222 -0.17639,0.70555 -0.24695,1.05833 -0.81139,-1.27 -2.43416,-2.15194 -4.02166,-2.15194 -4.55084,0 -7.12612,3.73944 -7.12612,7.83166 0,3.42195 2.64584,6.13834 6.35,6.13834 2.01084,0 3.95112,-1.23473 4.79778,-2.78695 0.3175,1.97556 1.94028,3.13972 3.88056,3.13972 3.64813,0 7.2271,-1.30018 7.2271,-8.07352 0,-3.56917 -1.28672,-7.63563 -3.96634,-10.3475 -2.67961,-2.71186 -6.75228,-4.4751 -10.84434,-4.43898 -10.47636,0.0925 -15.10003,7.76111 -15.10003,16.68639 0,5.96539 6.52639,13.79361 14.11111,13.79361 2.99861,0 5.43278,-0.635 7.54944,-1.69333 0.56445,-0.3175 0.84667,-0.74083 0.84667,-1.30528 0,-0.84666 -0.635,-1.65805 -1.44639,-1.65805 -0.42333,0 -0.91722,0.21166 -1.30528,0.35278 -1.34055,0.56444 -3.4925,1.16416 -5.715,1.12888 -5.99722,-0.0353 -10.70254,-6.19323 -10.795,-10.68916 -0.15305,-7.44204 3.35852,-13.33985 11.68662,-13.33985 4.09534,0 6.60914,1.24998 8.72449,3.33001 2.04685,2.01269 3.37519,5.59729 3.41362,8.47124 0.0403,3.01583 -1.00115,5.00435 -3.99862,4.81943 -1.6549,-0.1021 -1.83444,-1.76389 -1.69333,-3.31611 z m -6.84389,-1.34056 c 1.69333,0 3.42194,1.27 3.42194,3.38667 0,2.61056 -1.34055,4.69194 -3.88055,4.69194 -1.86972,0 -3.42195,-1.41111 -3.42195,-3.52777 0,-2.39889 1.41111,-4.55084 3.88056,-4.55084 z"
           style="font-style:normal;font-variant:normal;font-weight:normal;font-stretch:normal;font-size:35.27777863px;font-family:Linotte;-inkscape-font-specification:Linotte;fill:#0085c8;fill-opacity:1;stroke-width:0.26458332"
           id="path4526"
           inkscape:connector-curvature="0"
           sodipodi:nodetypes="ccsccssscsssssscssccsssssccsssss" />
      </g>
    </g>
    <g
       id="g4850"
       transform="translate(0,3.1355846)">
      <path
         style="fill:#0085c8;fill-opacity:1;stroke:none;stroke-width:1.95649457;stroke-miterlimit:4;stroke-dasharray:none;stroke-opacity:1"
         d="m 371.92403,249.47109 -29.99973,30.00023 29.99973,29.99972 30.00023,-29.99972 z m 0,12.0003 c 9.94108,3e-5 17.99991,8.05885 17.99995,17.99993 -3e-5,9.94108 -8.05887,17.99991 -17.99995,17.99994 -9.94107,-4e-5 -17.99989,-8.05887 -17.99992,-17.99994 4e-5,-9.94107 8.05885,-17.99989 17.99992,-17.99993 z m -0.0847,1.60507 c -8.80032,5.13726 -14.23847,14.5353 -14.30713,24.7251 4.35393,2.49506 9.28328,3.81152 14.30145,3.81941 5.02041,-0.0127 9.95063,-1.33509 14.30353,-3.83646 -0.0727,-10.18181 -5.50631,-19.57156 -14.29785,-24.70805 z"
         id="path4529"
         inkscape:connector-curvature="0"
         sodipodi:nodetypes="ccccccccccccccc" />
      <text
         inkscape:export-ydpi="96"
         inkscape:export-xdpi="96"
         id="text4533"
         y="285.94598"
         x="260.30612"
         style="font-style:normal;font-variant:normal;font-weight:bold;font-stretch:normal;font-size:29.63333321px;line-height:1.25;font-family:sans-serif;-inkscape-font-specification:'sans-serif Bold';letter-spacing:0px;word-spacing:0px;fill:#0085c8;fill-opacity:1;stroke:none;stroke-width:0.73727745"
         xml:space="preserve"><tspan
           style="font-style:normal;font-variant:normal;font-weight:bold;font-stretch:normal;font-size:29.63333321px;font-family:Linotte;-inkscape-font-specification:'Linotte Bold';fill:#0085c8;fill-opacity:1;stroke-width:0.73727745"
           y="285.94598"
           x="260.30612"
           id="tspan4531"
           sodipodi:role="line">mines</tspan></text>
      <text
         inkscape:export-ydpi="96"
         inkscape:export-xdpi="96"
         id="text4537"
         y="285.94397"
         x="405.82483"
         style="font-style:normal;font-weight:normal;font-size:29.63333321px;line-height:1.25;font-family:sans-serif;letter-spacing:0px;word-spacing:0px;fill:#0085c8;fill-opacity:1;stroke:none;stroke-width:0.26458332"
         xml:space="preserve"><tspan
           style="font-style:normal;font-variant:normal;font-weight:bold;font-stretch:normal;font-size:29.63333321px;font-family:Linotte;-inkscape-font-specification:'Linotte Bold';fill:#0085c8;fill-opacity:1;stroke-width:0.26458332"
           y="285.94397"
           x="405.82483"
           id="tspan4535"
           sodipodi:role="line">acm</tspan></text>
    </g>
    <g
       id="g4857"
       transform="translate(0,-5.1663271)">
      <text
         xml:space="preserve"
         style="font-style:normal;font-variant:normal;font-weight:bold;font-stretch:normal;font-size:29.63333321px;line-height:1.25;font-family:sans-serif;-inkscape-font-specification:'sans-serif Bold';letter-spacing:0px;word-spacing:0px;fill:#57a7d4;fill-opacity:1;stroke:none;stroke-width:0.73727745"
         x="260.30612"
         y="362.13388"
         id="text4830"
         inkscape:export-xdpi="96"
         inkscape:export-ydpi="96"><tspan
           sodipodi:role="line"
           id="tspan4828"
           x="260.30612"
           y="362.13388"
           style="font-style:normal;font-variant:normal;font-weight:bold;font-stretch:normal;font-size:29.63333321px;font-family:Linotte;-inkscape-font-specification:'Linotte Bold';fill:#57a7d4;fill-opacity:1;stroke-width:0.73727745">mines</tspan></text>
      <text
         xml:space="preserve"
         style="font-style:normal;font-weight:normal;font-size:29.63333321px;line-height:1.25;font-family:sans-serif;letter-spacing:0px;word-spacing:0px;fill:#57a7d4;fill-opacity:1;stroke:none;stroke-width:0.26458332"
         x="405.82483"
         y="362.13187"
         id="text4834"
         inkscape:export-xdpi="96"
         inkscape:export-ydpi="96"><tspan
           sodipodi:role="line"
           id="tspan4832"
           x="405.82483"
           y="362.13187"
           style="font-style:normal;font-variant:normal;font-weight:bold;font-stretch:normal;font-size:29.63333321px;font-family:Linotte;-inkscape-font-specification:'Linotte Bold';fill:#57a7d4;fill-opacity:1;stroke-width:0.26458332">acm</tspan></text>
      <path
         id="rect6921"
         d="m 371.92403,322.93928 -32.00012,32.00012 32.00012,32.00011 31.9996,-32.00011 z m -0.092,11.24221 0.79892,0.46715 c 10.01872,5.85355 16.21388,16.55903 16.29668,28.16211 l 0.006,0.92552 -0.80099,0.46096 c -4.96137,2.85088 -10.58077,4.35681 -16.30288,4.37131 h -0.004 -0.002 c -5.7198,-0.009 -11.34017,-1.50985 -16.30288,-4.35374 l -0.80253,-0.45889 0.006,-0.92553 c 0.0783,-11.61209 6.2799,-22.32737 16.30856,-28.18174 z m 0,3.74241 c -8.30394,5.2166 -13.48253,14.16804 -13.86737,23.96701 4.27196,2.26652 9.01748,3.50135 13.86324,3.50935 4.8462,-0.0132 9.59201,-1.25342 13.86168,-3.52537 -0.38769,-9.79139 -5.56209,-18.73515 -13.85755,-23.95099 z"
         style="fill:url(#linearGradient6927);fill-opacity:1;stroke:none;stroke-width:2.08692741;stroke-miterlimit:4;stroke-dasharray:none;stroke-opacity:1"
         inkscape:connector-curvature="0" />
    </g>
    <g
       id="g4869"
       transform="translate(0,-273.83199)">
      <text
         inkscape:export-ydpi="96"
         inkscape:export-xdpi="96"
         id="text4861"
         y="362.13388"
         x="260.30612"
         style="font-style:normal;font-variant:normal;font-weight:bold;font-stretch:normal;font-size:29.63333321px;line-height:1.25;font-family:sans-serif;-inkscape-font-specification:'sans-serif Bold';letter-spacing:0px;word-spacing:0px;fill:#099bd4;fill-opacity:1;stroke:none;stroke-width:0.73727745"
         xml:space="preserve"><tspan
           style="font-style:normal;font-variant:normal;font-weight:bold;font-stretch:normal;font-size:29.63333321px;font-family:Linotte;-inkscape-font-specification:'Linotte Bold';fill:#099bd4;fill-opacity:1;stroke-width:0.73727745"
           y="362.13388"
           x="260.30612"
           id="tspan4859"
           sodipodi:role="line">mines</tspan></text>
      <text
         inkscape:export-ydpi="96"
         inkscape:export-xdpi="96"
         id="text4865"
         y="362.13187"
         x="405.82483"
         style="font-style:normal;font-weight:normal;font-size:29.63333321px;line-height:1.25;font-family:sans-serif;letter-spacing:0px;word-spacing:0px;fill:#099bd4;fill-opacity:1;stroke:none;stroke-width:0.26458332"
         xml:space="preserve"><tspan
           style="font-style:normal;font-variant:normal;font-weight:bold;font-stretch:normal;font-size:29.63333321px;font-family:Linotte;-inkscape-font-specification:'Linotte Bold';fill:#099bd4;fill-opacity:1;stroke-width:0.26458332"
           y="362.13187"
           x="405.82483"
           id="tspan4863"
           sodipodi:role="line">acm</tspan></text>
      <path
         inkscape:connector-curvature="0"
         style="fill:url(#linearGradient4871);fill-opacity:1;stroke:none;stroke-width:2.08692741;stroke-miterlimit:4;stroke-dasharray:none;stroke-opacity:1"
         d="m 371.92403,322.93928 -32.00012,32.00012 32.00012,32.00011 31.9996,-32.00011 z m -0.092,11.24221 0.79892,0.46715 c 10.01872,5.85355 16.21388,16.55903 16.29668,28.16211 l 0.006,0.92552 -0.80099,0.46096 c -4.96137,2.85088 -10.58077,4.35681 -16.30288,4.37131 h -0.004 -0.002 c -5.7198,-0.009 -11.34017,-1.50985 -16.30288,-4.35374 l -0.80253,-0.45889 0.006,-0.92553 c 0.0783,-11.61209 6.2799,-22.32737 16.30856,-28.18174 z m 0,3.74241 c -8.30394,5.2166 -13.48253,14.16804 -13.86737,23.96701 4.27196,2.26652 9.01748,3.50135 13.86324,3.50935 4.8462,-0.0132 9.59201,-1.25342 13.86168,-3.52537 -0.38769,-9.79139 -5.56209,-18.73515 -13.85755,-23.95099 z"
         id="path4867" />
    </g>
    <g
       transform="translate(0,137.46842)"
       id="g4893">
      <path
         sodipodi:nodetypes="ccccccccccccccc"
         inkscape:connector-curvature="0"
         id="path4883"
         d="m 371.92403,249.47109 -29.99973,30.00023 29.99973,29.99972 30.00023,-29.99972 z m 0,12.0003 c 9.94108,3e-5 17.99991,8.05885 17.99995,17.99993 -3e-5,9.94108 -8.05887,17.99991 -17.99995,17.99994 -9.94107,-4e-5 -17.99989,-8.05887 -17.99992,-17.99994 4e-5,-9.94107 8.05885,-17.99989 17.99992,-17.99993 z m -0.0847,1.60507 c -8.80032,5.13726 -14.23847,14.5353 -14.30713,24.7251 4.35393,2.49506 9.28328,3.81152 14.30145,3.81941 5.02041,-0.0127 9.95063,-1.33509 14.30353,-3.83646 -0.0727,-10.18181 -5.50631,-19.57156 -14.29785,-24.70805 z"
         style="fill:#59a8d5;fill-opacity:1;stroke:none;stroke-width:1.95649457;stroke-miterlimit:4;stroke-dasharray:none;stroke-opacity:1" />
      <text
         xml:space="preserve"
         style="font-style:normal;font-variant:normal;font-weight:bold;font-stretch:normal;font-size:29.63333321px;line-height:1.25;font-family:sans-serif;-inkscape-font-specification:'sans-serif Bold';letter-spacing:0px;word-spacing:0px;fill:#59a8d5;fill-opacity:1;stroke:none;stroke-width:0.73727745"
         x="260.30612"
         y="285.94598"
         id="text4887"
         inkscape:export-xdpi="96"
         inkscape:export-ydpi="96"><tspan
           sodipodi:role="line"
           id="tspan4885"
           x="260.30612"
           y="285.94598"
           style="font-style:normal;font-variant:normal;font-weight:bold;font-stretch:normal;font-size:29.63333321px;font-family:Linotte;-inkscape-font-specification:'Linotte Bold';fill:#59a8d5;fill-opacity:1;stroke-width:0.73727745">mines</tspan></text>
      <text
         xml:space="preserve"
         style="font-style:normal;font-weight:normal;font-size:29.63333321px;line-height:1.25;font-family:sans-serif;letter-spacing:0px;word-spacing:0px;fill:#59a8d5;fill-opacity:1;stroke:none;stroke-width:0.26458332"
         x="405.82483"
         y="285.94397"
         id="text4891"
         inkscape:export-xdpi="96"
         inkscape:export-ydpi="96"><tspan
           sodipodi:role="line"
           id="tspan4889"
           x="405.82483"
           y="285.94397"
           style="font-style:normal;font-variant:normal;font-weight:bold;font-stretch:normal;font-size:29.63333321px;font-family:Linotte;-inkscape-font-specification:'Linotte Bold';fill:#59a8d5;fill-opacity:1;stroke-width:0.26458332">acm</tspan></text>
    </g>
    <text
       xml:space="preserve"
       style="font-style:normal;font-variant:normal;font-weight:normal;font-stretch:normal;font-size:4.93888855px;line-height:1.25;font-family:Linotte;-inkscape-font-specification:Linotte;letter-spacing:0px;word-spacing:0px;fill:#000000;fill-opacity:1;stroke:none;stroke-width:0.26458332"
       x="238.76433"
       y="63.792389"
       id="text4901"><tspan
         sodipodi:role="line"
         id="tspan4899"
         x="238.76433"
         y="63.792389"
         style="font-size:14.11111069px;stroke-width:0.26458332">A:</tspan></text>
    <text
       id="text4909"
       y="131.45795"
       x="238.76433"
       style="font-style:normal;font-variant:normal;font-weight:normal;font-stretch:normal;font-size:4.93888855px;line-height:1.25;font-family:Linotte;-inkscape-font-specification:Linotte;letter-spacing:0px;word-spacing:0px;fill:#000000;fill-opacity:1;stroke:none;stroke-width:0.26458332"
       xml:space="preserve"><tspan
         style="font-size:14.11111069px;stroke-width:0.26458332"
         y="131.45795"
         x="238.76433"
         id="tspan4907"
         sodipodi:role="line">B:</tspan></text>
    <text
       xml:space="preserve"
       style="font-style:normal;font-variant:normal;font-weight:normal;font-stretch:normal;font-size:4.93888855px;line-height:1.25;font-family:Linotte;-inkscape-font-specification:Linotte;letter-spacing:0px;word-spacing:0px;fill:#000000;fill-opacity:1;stroke:none;stroke-width:0.26458332"
       x="238.76433"
       y="199.1235"
       id="text4913"><tspan
         sodipodi:role="line"
         id="tspan4911"
         x="238.76433"
         y="199.1235"
         style="font-size:14.11111069px;stroke-width:0.26458332">C:</tspan></text>
    <text
       id="text4917"
       y="266.78906"
       x="238.76433"
       style="font-style:normal;font-variant:normal;font-weight:normal;font-stretch:normal;font-size:4.93888855px;line-height:1.25;font-family:Linotte;-inkscape-font-specification:Linotte;letter-spacing:0px;word-spacing:0px;fill:#000000;fill-opacity:1;stroke:none;stroke-width:0.26458332"
       xml:space="preserve"><tspan
         style="font-size:14.11111069px;stroke-width:0.26458332"
         y="266.78906"
         x="238.76433"
         id="tspan4915"
         sodipodi:role="line">D:</tspan></text>
    <text
       xml:space="preserve"
       style="font-style:normal;font-variant:normal;font-weight:normal;font-stretch:normal;font-size:4.93888855px;line-height:1.25;font-family:Linotte;-inkscape-font-specification:Linotte;letter-spacing:0px;word-spacing:0px;fill:#000000;fill-opacity:1;stroke:none;stroke-width:0.26458332"
       x="238.76433"
       y="334.45462"
       id="text4921"><tspan
         sodipodi:role="line"
         id="tspan4919"
         x="238.76433"
         y="334.45462"
         style="font-size:14.11111069px;stroke-width:0.26458332">E:</tspan></text>
    <text
       id="text4925"
       y="402.12018"
       x="238.76433"
       style="font-style:normal;font-variant:normal;font-weight:normal;font-stretch:normal;font-size:4.93888855px;line-height:1.25;font-family:Linotte;-inkscape-font-specification:Linotte;letter-spacing:0px;word-spacing:0px;fill:#000000;fill-opacity:1;stroke:none;stroke-width:0.26458332"
       xml:space="preserve"><tspan
         style="font-size:14.11111069px;stroke-width:0.26458332"
         y="402.12018"
         x="238.76433"
         id="tspan4923"
         sodipodi:role="line">F:</tspan></text>
  </g>
</svg>
