<?xml version="1.0" encoding="UTF-8" standalone="no"?>
<!-- Created with Inkscape (http://www.inkscape.org/) -->

<svg
   xmlns:dc="http://purl.org/dc/elements/1.1/"
   xmlns:cc="http://creativecommons.org/ns#"
   xmlns:rdf="http://www.w3.org/1999/02/22-rdf-syntax-ns#"
   xmlns:svg="http://www.w3.org/2000/svg"
   xmlns="http://www.w3.org/2000/svg"
   xmlns:sodipodi="http://sodipodi.sourceforge.net/DTD/sodipodi-0.dtd"
   xmlns:inkscape="http://www.inkscape.org/namespaces/inkscape"
   width="177.28813mm"
   height="110.32952mm"
   viewBox="0 0 177.28813 110.32952"
   version="1.1"
   id="svg1146"
   inkscape:version="0.92.2 5c3e80d, 2017-08-06"
   sodipodi:docname="acmflyer.svg">
  <defs
     id="defs1140" />
  <sodipodi:namedview
     id="base"
     pagecolor="#ffffff"
     bordercolor="#666666"
     borderopacity="1.0"
     inkscape:pageopacity="0.0"
     inkscape:pageshadow="2"
     inkscape:zoom="0.35"
     inkscape:cx="-447.82446"
     inkscape:cy="157.06816"
     inkscape:document-units="mm"
     inkscape:current-layer="layer1"
     showgrid="false"
     inkscape:window-width="3840"
     inkscape:window-height="2102"
     inkscape:window-x="0"
     inkscape:window-y="28"
     inkscape:window-maximized="0" />
  <metadata
     id="metadata1143">
    <rdf:RDF>
      <cc:Work
         rdf:about="">
        <dc:format>image/svg+xml</dc:format>
        <dc:type
           rdf:resource="http://purl.org/dc/dcmitype/StillImage" />
        <dc:title></dc:title>
      </cc:Work>
    </rdf:RDF>
  </metadata>
  <g
     inkscape:label="Layer 1"
     inkscape:groupmode="layer"
     id="layer1"
     transform="translate(-12.653555,-80.061429)">
    <g
       transform="translate(-7.2818476,42.83038)"
       id="g1644">
      <g
         transform="translate(1.0834961e-6,1.4160169e-6)"
         id="g1110">
        <rect
           style="fill:#0085c8;fill-opacity:1;stroke-width:0.21775964"
           id="rect935"
           width="72.284859"
           height="25.870377"
           x="19.935402"
           y="37.231049" />
        <g
           transform="matrix(0.31735039,0,0,0.31735039,-28.602877,37.113084)"
           id="layer1-9"
           inkscape:label="Layer 1"
           style="fill:#ffffff;fill-opacity:1">
          <g
             style="fill:#ffffff;fill-opacity:1"
             transform="translate(-98.432416,-314.86605)"
             id="g4869">
            <text
               xml:space="preserve"
               style="font-style:normal;font-variant:normal;font-weight:bold;font-stretch:normal;font-size:29.63333321px;line-height:1.25;font-family:Linotte;-inkscape-font-specification:'Linotte Bold';letter-spacing:0px;word-spacing:0px;fill:#ffffff;fill-opacity:1;stroke:none;stroke-width:0.73727745"
               x="260.30612"
               y="362.13388"
               id="text4861"
               inkscape:export-xdpi="96"
               inkscape:export-ydpi="96"><tspan
                 sodipodi:role="line"
                 id="tspan4859"
                 x="260.30612"
                 y="362.13388"
                 style="font-style:normal;font-variant:normal;font-weight:bold;font-stretch:normal;font-size:29.63333321px;font-family:Linotte;-inkscape-font-specification:'Linotte Bold';fill:#ffffff;fill-opacity:1;stroke-width:0.73727745">mines</tspan></text>
            <text
               xml:space="preserve"
               style="font-style:normal;font-variant:normal;font-weight:bold;font-stretch:normal;font-size:29.63333321px;line-height:1.25;font-family:Linotte;-inkscape-font-specification:'Linotte Bold';letter-spacing:0px;word-spacing:0px;fill:#ffffff;fill-opacity:1;stroke:none;stroke-width:0.26458332"
               x="415.34985"
               y="362.10425"
               id="text4865"
               inkscape:export-xdpi="96"
               inkscape:export-ydpi="96"><tspan
                 sodipodi:role="line"
                 id="tspan4863"
                 x="415.34985"
                 y="362.10425"
                 style="font-style:normal;font-variant:normal;font-weight:bold;font-stretch:normal;font-size:29.63333321px;font-family:Linotte;-inkscape-font-specification:'Linotte Bold';fill:#ffffff;fill-opacity:1;stroke-width:0.26458332">acm</tspan></text>
            <path
               id="path4867"
               d="m 376.37357,323.99761 -32.00012,32.00012 32.00012,32.00011 31.9996,-32.00011 z m -0.092,11.24221 0.79892,0.46715 c 10.01872,5.85355 16.21388,16.55903 16.29668,28.16211 l 0.006,0.92552 -0.80099,0.46096 c -4.96137,2.85088 -10.58077,4.35681 -16.30288,4.37131 h -0.004 -0.002 c -5.7198,-0.009 -11.34017,-1.50985 -16.30288,-4.35374 l -0.80253,-0.45889 0.006,-0.92553 c 0.0783,-11.61209 6.2799,-22.32737 16.30856,-28.18174 z m 0,3.74241 c -8.30394,5.2166 -13.48253,14.16804 -13.86737,23.96701 4.27196,2.26652 9.01748,3.50135 13.86324,3.50935 4.8462,-0.0132 9.59201,-1.25342 13.86168,-3.52537 -0.38769,-9.79139 -5.56209,-18.73515 -13.85755,-23.95099 z"
               style="fill:#ffffff;fill-opacity:1;stroke:none;stroke-width:2.08692741;stroke-miterlimit:4;stroke-dasharray:none;stroke-opacity:1"
               inkscape:connector-curvature="0" />
          </g>
        </g>
      </g>
      <rect
         style="fill:#444444;fill-opacity:1;stroke-width:0.3934589"
         id="rect1100"
         width="72.284859"
         height="84.459145"
         x="19.935404"
         y="63.101425" />
      <text
         id="text1114"
         y="73.432289"
         x="23.054506"
         style="font-style:normal;font-weight:normal;font-size:10.58333302px;line-height:125%;font-family:sans-serif;letter-spacing:0px;word-spacing:0px;fill:#000000;fill-opacity:1;stroke:none;stroke-width:0.26458332px;stroke-linecap:butt;stroke-linejoin:miter;stroke-opacity:1"
         xml:space="preserve"><tspan
           style="font-style:normal;font-variant:normal;font-weight:bold;font-stretch:normal;font-size:7.05555534px;font-family:'Gotham Bold';-inkscape-font-specification:'Gotham Bold, Bold';fill:#ffffff;fill-opacity:1;stroke-width:0.26458332px"
           y="73.432289"
           x="23.054506"
           id="tspan1112"
           sodipodi:role="line">First Meeting</tspan></text>
      <rect
         y="37.231049"
         x="92.220261"
         height="25.870377"
         width="105.00327"
         id="rect1124"
         style="fill:#4bb2e7;fill-opacity:1;stroke-width:0.26458332" />
      <text
         xml:space="preserve"
         style="font-style:normal;font-weight:normal;font-size:10.58333302px;line-height:125%;font-family:sans-serif;letter-spacing:0px;word-spacing:0px;fill:#ffffff;fill-opacity:1;stroke:none;stroke-width:0.26458332px;stroke-linecap:butt;stroke-linejoin:miter;stroke-opacity:1"
         x="23.054506"
         y="100.15033"
         id="text1132"><tspan
           sodipodi:role="line"
           id="tspan1128"
           x="23.054506"
           y="100.15033"
           style="font-style:normal;font-variant:normal;font-weight:normal;font-stretch:normal;font-size:7.05555534px;font-family:'Gotham Medium';-inkscape-font-specification:'Gotham Medium, ';fill:#ffffff;fill-opacity:1;stroke-width:0.26458332px">Berthoud Hall 205</tspan><tspan
           sodipodi:role="line"
           x="23.054506"
           y="113.86932"
           style="font-style:normal;font-variant:normal;font-weight:normal;font-stretch:normal;font-size:7.05555534px;font-family:'Gotham Medium';-inkscape-font-specification:'Gotham Medium, ';fill:#ffffff;fill-opacity:1;stroke-width:0.26458332px"
           id="tspan1130" /></text>
      <g
         transform="translate(0,3.576058)"
         id="g1146">
        <text
           xml:space="preserve"
           style="font-style:normal;font-weight:normal;font-size:10.58333302px;line-height:125%;font-family:sans-serif;letter-spacing:0px;word-spacing:0px;fill:#ffffff;fill-opacity:1;stroke:none;stroke-width:0.26458332px;stroke-linecap:butt;stroke-linejoin:miter;stroke-opacity:1"
           x="22.814617"
           y="79.249947"
           id="text1118"><tspan
             sodipodi:role="line"
             id="tspan1116"
             x="22.814617"
             y="79.249947"
             style="font-style:normal;font-variant:normal;font-weight:normal;font-stretch:normal;font-size:7.05555534px;font-family:'Gotham Medium';-inkscape-font-specification:'Gotham Medium, ';fill:#ffffff;fill-opacity:1;stroke-width:0.26458332px">Tuesday</tspan><tspan
             sodipodi:role="line"
             x="22.814617"
             y="92.968933"
             style="font-style:normal;font-variant:normal;font-weight:normal;font-stretch:normal;font-size:7.05555534px;font-family:'Gotham Medium';-inkscape-font-specification:'Gotham Medium, ';fill:#ffffff;fill-opacity:1;stroke-width:0.26458332px"
             id="tspan1126" /></text>
        <text
           id="text1138"
           y="87.049942"
           x="22.84284"
           style="font-style:normal;font-weight:normal;font-size:10.58333302px;line-height:125%;font-family:sans-serif;letter-spacing:0px;word-spacing:0px;fill:#ffffff;fill-opacity:1;stroke:none;stroke-width:0.26458332px;stroke-linecap:butt;stroke-linejoin:miter;stroke-opacity:1"
           xml:space="preserve"><tspan
             style="font-style:normal;font-variant:normal;font-weight:normal;font-stretch:normal;font-size:7.05555534px;font-family:'Gotham Medium';-inkscape-font-specification:'Gotham Medium, ';fill:#ffffff;fill-opacity:1;stroke-width:0.26458332px"
             y="87.049942"
             x="22.84284"
             id="tspan1134"
             sodipodi:role="line">Aug 29 at 6 PM</tspan><tspan
             id="tspan1136"
             style="font-style:normal;font-variant:normal;font-weight:normal;font-stretch:normal;font-size:7.05555534px;font-family:'Gotham Medium';-inkscape-font-specification:'Gotham Medium, ';fill:#ffffff;fill-opacity:1;stroke-width:0.26458332px"
             y="100.76893"
             x="22.84284"
             sodipodi:role="line" /></text>
      </g>
      <text
         id="text1150"
         y="54.218948"
         x="104.71531"
         style="font-style:normal;font-weight:normal;font-size:10.58333302px;line-height:125%;font-family:sans-serif;letter-spacing:0px;word-spacing:0px;fill:#ffffff;fill-opacity:1;stroke:none;stroke-width:0.26458332px;stroke-linecap:butt;stroke-linejoin:miter;stroke-opacity:1"
         xml:space="preserve"><tspan
           style="font-style:normal;font-variant:normal;font-weight:normal;font-stretch:normal;font-size:11.28888893px;font-family:'Gotham Bold';-inkscape-font-specification:'Gotham Bold, ';fill:#ffffff;fill-opacity:1;stroke-width:0.26458332px"
           y="54.218948"
           x="104.71531"
           id="tspan1148"
           sodipodi:role="line">What is ACM?</tspan></text>
      <rect
         y="63.101425"
         x="92.220261"
         height="84.459145"
         width="105.00327"
         id="rect1152"
         style="fill:#eeeeee;fill-opacity:1;stroke-width:0.26458332" />
      <g
         transform="translate(5.305523)"
         id="g1338">
        <g
           id="g1306"
           transform="matrix(0.10152617,0,0,0.10152617,18.491112,106.48558)"
           style="fill:#ffffff;fill-opacity:1">
          <g
             id="g1247"
             style="fill:#ffffff;fill-opacity:1">
            <path
               id="path1239"
               d="m 118.807,110.946 c -9.484,0 -17.2,7.716 -17.2,17.201 0,9.484 7.716,17.201 17.2,17.201 9.484,0 17.201,-7.716 17.201,-17.201 0,-9.484 -7.717,-17.201 -17.201,-17.201 z m 0,25.402 c -4.521,0 -8.2,-3.679 -8.2,-8.201 0,-4.522 3.679,-8.201 8.2,-8.201 4.522,0 8.201,3.679 8.201,8.201 0,4.522 -3.679,8.201 -8.201,8.201 z"
               inkscape:connector-curvature="0"
               style="fill:#ffffff;fill-opacity:1" />
            <path
               id="path1241"
               d="m 237.504,106.981 c 9.484,0 17.2,-7.716 17.2,-17.201 0,-9.485 -7.716,-17.201 -17.2,-17.201 -9.484,0 -17.2,7.716 -17.2,17.201 0,9.485 7.716,17.201 17.2,17.201 z m 0,-25.401 c 4.521,0 8.2,3.679 8.2,8.201 0,4.522 -3.679,8.201 -8.2,8.201 -4.521,0 -8.2,-3.679 -8.2,-8.201 0,-4.523 3.678,-8.201 8.2,-8.201 z"
               inkscape:connector-curvature="0"
               style="fill:#ffffff;fill-opacity:1" />
            <path
               id="path1243"
               d="M 296.229,23 C 257.182,7.738 215.958,0 173.701,0 131.075,0 89.53,7.86 50.222,23.363 c -2.3,0.907 -3.437,3.499 -2.547,5.806 l 121.29,314.415 c 0.669,1.736 2.338,2.88 4.198,2.88 1.86,0 3.529,-1.145 4.198,-2.88 L 298.789,28.812 C 299.681,26.5 298.536,23.902 296.229,23 Z M 120.7,193.464 c 1.542,-0.249 3.111,-0.376 4.696,-0.376 16.096,0 29.191,13.089 29.191,29.179 0,9.996 -5.113,19.165 -13.33,24.485 z m 52.463,135.997 -28.618,-74.186 c 11.683,-6.774 19.042,-19.293 19.042,-33.008 0,-21.052 -17.132,-38.179 -38.191,-38.179 -2.707,0 -5.379,0.286 -7.988,0.843 L 72.726,69.103 c 32.237,-12.167 66.183,-18.349 100.981,-18.349 34.455,0 68.08,6.064 100.027,18 L 225.64,193.425 c -3.846,-6.991 -11.283,-11.739 -19.81,-11.739 -12.459,0 -22.596,10.136 -22.596,22.596 0,12.459 10.137,22.596 22.596,22.596 2.586,0 5.07,-0.443 7.386,-1.246 z m 32.668,-111.584 c -7.497,0 -13.596,-6.099 -13.596,-13.596 0,-7.497 6.099,-13.596 13.596,-13.596 7.497,0 13.596,6.099 13.596,13.596 0,7.497 -6.099,13.596 -13.596,13.596 z M 276.974,60.357 C 243.989,48.022 209.275,41.754 173.707,41.754 c -35.911,0 -70.946,6.386 -104.22,18.953 L 57.69,30.125 C 94.707,16.106 133.714,9 173.701,9 c 39.624,0 78.313,6.989 115.067,20.781 z"
               inkscape:connector-curvature="0"
               style="fill:#ffffff;fill-opacity:1" />
            <path
               id="path1245"
               d="m 192.801,133.962 17.482,7.942 c 1.089,0.494 2.325,0.536 3.442,0.116 1.117,-0.419 2.023,-1.265 2.516,-2.352 4.723,-10.396 5.114,-22.009 1.102,-32.699 -4.012,-10.69 -11.946,-19.179 -22.342,-23.901 -5.604,-2.546 -11.545,-3.836 -17.657,-3.836 -16.736,0 -32.023,9.843 -38.942,25.077 -1.028,2.263 -0.027,4.931 2.235,5.958 l 17.483,7.942 -7.051,15.521 c -4.344,9.561 -0.099,20.873 9.463,25.217 2.496,1.134 5.144,1.708 7.868,1.708 7.455,0 14.266,-4.385 17.348,-11.171 z m -15.245,11.799 c -1.627,3.581 -5.22,5.894 -9.154,5.894 -1.432,0 -2.827,-0.304 -4.145,-0.903 -5.043,-2.291 -7.282,-8.257 -4.992,-13.3 l 8.912,-19.619 c 1.028,-2.263 0.027,-4.931 -2.235,-5.959 l -17.208,-7.817 c 6.116,-9.739 16.915,-15.827 28.612,-15.827 4.819,0 9.508,1.02 13.934,3.031 8.207,3.728 14.472,10.429 17.639,18.869 2.634,7.019 2.863,14.541 0.722,21.596 l -17.214,-7.82 c -1.089,-0.494 -2.325,-0.536 -3.442,-0.116 -1.117,0.419 -2.022,1.265 -2.516,2.351 z"
               inkscape:connector-curvature="0"
               style="fill:#ffffff;fill-opacity:1" />
          </g>
          <g
             id="g1249"
             style="fill:#ffffff;fill-opacity:1" />
          <g
             id="g1251"
             style="fill:#ffffff;fill-opacity:1" />
          <g
             id="g1253"
             style="fill:#ffffff;fill-opacity:1" />
          <g
             id="g1255"
             style="fill:#ffffff;fill-opacity:1" />
          <g
             id="g1257"
             style="fill:#ffffff;fill-opacity:1" />
          <g
             id="g1259"
             style="fill:#ffffff;fill-opacity:1" />
          <g
             id="g1261"
             style="fill:#ffffff;fill-opacity:1" />
          <g
             id="g1263"
             style="fill:#ffffff;fill-opacity:1" />
          <g
             id="g1265"
             style="fill:#ffffff;fill-opacity:1" />
          <g
             id="g1267"
             style="fill:#ffffff;fill-opacity:1" />
          <g
             id="g1269"
             style="fill:#ffffff;fill-opacity:1" />
          <g
             id="g1271"
             style="fill:#ffffff;fill-opacity:1" />
          <g
             id="g1273"
             style="fill:#ffffff;fill-opacity:1" />
          <g
             id="g1275"
             style="fill:#ffffff;fill-opacity:1" />
          <g
             id="g1277"
             style="fill:#ffffff;fill-opacity:1" />
        </g>
        <text
           xml:space="preserve"
           style="font-style:normal;font-weight:normal;font-size:10.58333302px;line-height:125%;font-family:sans-serif;letter-spacing:0px;word-spacing:0px;fill:#ffffff;fill-opacity:1;stroke:none;stroke-width:0.26458332px;stroke-linecap:butt;stroke-linejoin:miter;stroke-opacity:1"
           x="65.99115"
           y="120.9629"
           id="text1310"><tspan
             sodipodi:role="line"
             id="tspan1308"
             x="65.99115"
             y="120.9629"
             style="font-style:normal;font-variant:normal;font-weight:normal;font-stretch:normal;font-family:Linotte;-inkscape-font-specification:Linotte;text-align:center;text-anchor:middle;fill:#ffffff;fill-opacity:1;stroke-width:0.26458332px">Free</tspan><tspan
             sodipodi:role="line"
             x="65.99115"
             y="134.29541"
             style="font-style:normal;font-variant:normal;font-weight:normal;font-stretch:normal;font-family:Linotte;-inkscape-font-specification:Linotte;text-align:center;text-anchor:middle;fill:#ffffff;fill-opacity:1;stroke-width:0.26458332px"
             id="tspan1312">Food!</tspan></text>
      </g>
      <text
         id="text1370"
         y="70.380081"
         x="95.17746"
         style="font-style:normal;font-weight:normal;font-size:10.59406281px;line-height:0.69999999;font-family:sans-serif;letter-spacing:0px;word-spacing:0px;fill:#000000;fill-opacity:1;stroke:none;stroke-width:0.26485157px;stroke-linecap:butt;stroke-linejoin:miter;stroke-opacity:1"
         xml:space="preserve"><tspan
           id="tspan1372"
           style="font-style:normal;font-variant:normal;font-weight:normal;font-stretch:normal;font-size:4.94389629px;line-height:0.69999999;font-family:'Gotham Medium';-inkscape-font-specification:'Gotham Medium, ';stroke-width:0.26485157px"
           y="70.380081"
           x="95.17746"
           sodipodi:role="line">Mines ACM is the local student chapter</tspan><tspan
           id="tspan1374"
           style="font-style:normal;font-variant:normal;font-weight:normal;font-stretch:normal;font-size:4.94389629px;line-height:0.69999999;font-family:'Gotham Medium';-inkscape-font-specification:'Gotham Medium, ';stroke-width:0.26485157px"
           y="77.795921"
           x="95.17746"
           sodipodi:role="line">of the <tspan
   id="tspan1392"
   style="font-style:normal;font-variant:normal;font-weight:normal;font-stretch:normal;font-family:'Gotham Bold';-inkscape-font-specification:'Gotham Bold, ';stroke-width:0.26485157px">Association for Computing</tspan></tspan><tspan
           id="tspan1388"
           style="font-style:normal;font-variant:normal;font-weight:normal;font-stretch:normal;font-size:4.94389629px;line-height:0.69999999;font-family:'Gotham Medium';-inkscape-font-specification:'Gotham Medium, ';stroke-width:0.26485157px"
           y="85.211769"
           x="95.17746"
           sodipodi:role="line"><tspan
   id="tspan1394"
   style="font-style:normal;font-variant:normal;font-weight:normal;font-stretch:normal;font-family:'Gotham Bold';-inkscape-font-specification:'Gotham Bold, ';stroke-width:0.26485157px">Machinery</tspan>. As a <tspan
   id="tspan1396"
   style="font-style:normal;font-variant:normal;font-weight:normal;font-stretch:normal;font-family:'Gotham Bold';-inkscape-font-specification:'Gotham Bold, ';stroke-width:0.26485157px">Mozilla Campus Club</tspan>,</tspan><tspan
           id="tspan1390"
           style="font-style:normal;font-variant:normal;font-weight:normal;font-stretch:normal;font-size:4.94389629px;line-height:0.69999999;font-family:'Gotham Medium';-inkscape-font-specification:'Gotham Medium, ';stroke-width:0.26485157px"
           y="92.627609"
           x="95.17746"
           sodipodi:role="line">we work on <tspan
   id="tspan1424"
   style="font-style:normal;font-variant:normal;font-weight:normal;font-stretch:normal;font-family:'Gotham Bold';-inkscape-font-specification:'Gotham Bold, ';stroke-width:0.26485157px">open source projects</tspan> that</tspan><tspan
           id="tspan1402"
           style="font-style:normal;font-variant:normal;font-weight:normal;font-stretch:normal;font-size:4.94389629px;line-height:0.69999999;font-family:'Gotham Medium';-inkscape-font-specification:'Gotham Medium, ';stroke-width:0.26485157px"
           y="100.04346"
           x="95.17746"
           sodipodi:role="line">solve local problems on a global scope.</tspan><tspan
           id="tspan1408"
           style="font-style:normal;font-variant:normal;font-weight:normal;font-stretch:normal;font-size:4.94389629px;line-height:0.69999999;font-family:'Gotham Medium';-inkscape-font-specification:'Gotham Medium, ';stroke-width:0.26485157px"
           y="107.4593"
           x="95.17746"
           sodipodi:role="line">In addition, we host <tspan
   id="tspan1436"
   style="font-style:normal;font-variant:normal;font-weight:normal;font-stretch:normal;font-family:'Gotham Bold';-inkscape-font-specification:'Gotham Bold, '">tech talks</tspan> from</tspan><tspan
           id="tspan1434"
           style="font-style:normal;font-variant:normal;font-weight:normal;font-stretch:normal;font-size:4.94389629px;line-height:0.69999999;font-family:'Gotham Medium';-inkscape-font-specification:'Gotham Medium, ';stroke-width:0.26485157px"
           y="114.87514"
           x="95.17746"
           sodipodi:role="line">industry professionals and practice for</tspan><tspan
           id="tspan1438"
           style="font-style:normal;font-variant:normal;font-weight:normal;font-stretch:normal;font-size:4.94389629px;line-height:0.69999999;font-family:'Gotham Medium';-inkscape-font-specification:'Gotham Medium, ';stroke-width:0.26485157px"
           y="122.29099"
           x="95.17746"
           sodipodi:role="line"><tspan
             id="tspan1442"
             style="font-style:normal;font-variant:normal;font-weight:normal;font-stretch:normal;font-family:'Gotham Bold';-inkscape-font-specification:'Gotham Bold, '">programming competitions. </tspan></tspan></text>
      <g
         transform="translate(0,2.0999992)"
         id="g1567">
        <text
           id="text1482"
           y="131.28018"
           x="95.17746"
           style="font-style:normal;font-weight:normal;font-size:10.59406281px;line-height:0.69999999;font-family:sans-serif;letter-spacing:0px;word-spacing:0px;fill:#000000;fill-opacity:1;stroke:none;stroke-width:0.26485157px;stroke-linecap:butt;stroke-linejoin:miter;stroke-opacity:1"
           xml:space="preserve"><tspan
             style="font-style:normal;font-variant:normal;font-weight:normal;font-stretch:normal;font-size:4.94389629px;line-height:0.69999999;font-family:'Gotham Medium';-inkscape-font-specification:'Gotham Medium, ';stroke-width:0.26485157px"
             y="131.28018"
             x="95.17746"
             sodipodi:role="line"
             id="tspan1555">Visit our website &amp; join our mailing list:</tspan></text>
        <text
           xml:space="preserve"
           style="font-style:normal;font-weight:normal;font-size:10.59406281px;line-height:0.69999999;font-family:sans-serif;letter-spacing:0px;word-spacing:0px;fill:#0085c8;fill-opacity:1;stroke:none;stroke-width:0.26485157px;stroke-linecap:butt;stroke-linejoin:miter;stroke-opacity:1"
           x="95.17746"
           y="138.17998"
           id="text1561"><tspan
             id="tspan1559"
             sodipodi:role="line"
             x="95.17746"
             y="138.17998"
             style="font-style:normal;font-variant:normal;font-weight:normal;font-stretch:normal;font-size:4.94389629px;line-height:0.69999999;font-family:'Gotham Bold';-inkscape-font-specification:'Gotham Bold, ';fill:#0085c8;fill-opacity:1;stroke-width:0.26485157px">https://acm.mines.edu</tspan></text>
      </g>
    </g>
  </g>
</svg>
